<svg id="Capa_1" enable-background="new 0 0 510.4 510.4" height="512" viewBox="0 0 510.4 510.4" width="512" xmlns="http://www.w3.org/2000/svg"><g><path d="m4.257 447.595h76.485v30h-76.485z" fill="#edf5ff" transform="matrix(.196 -.981 .981 .196 -419.446 413.542)"/><path d="m285 230.095h15v275h-15z" fill="#b5dbff"/><path d="m270 230.095h15v275h-15z" fill="#d5e8fe"/><path d="m285 5.095h15v45h-15z" fill="#b5dbff"/><path d="m270 5.095h15v45h-15z" fill="#d5e8fe"/><path d="m465 215.095v30h-180v-210c99.25 0 180 80.75 180 180z" fill="#ef9b14"/><path d="m285 35.095v210h-180v-30c0-99.25 80.75-180 180-180z" fill="#ffdb00"/><path d="m285 35.095 12.243 110.105-12.243 99.895h-85v-30c0-46.04 7.7-89.56 21.69-122.53 15.73-37.06 38.21-57.47 63.31-57.47z" fill="#ff415b"/><path d="m370 215.095v30h-85v-210c25.1 0 47.58 20.41 63.31 57.47 13.99 32.97 21.69 76.49 21.69 122.53z" fill="#ae2538"/><path d="m510.4 305.895-139.35 134.2h-86.05v-30h73.95l130.65-125.8z" fill="#4bb9ec"/><path d="m0 410.095h285v30h-285z" fill="#64e1dc"/><path d="m404.07 494.885-28.14 10.42-44.78-120.9c-.95-2.58-3.44-4.31-6.18-4.31h-39.97v-30h39.97c15.23 0 29.03 9.6 34.32 23.89z" fill="#d5e8fe"/><path d="m285 350.095v30h-42.67c-3.12 0-5.77 2.13-6.45 5.17l-26.24 118.08-29.28-6.5 26.24-118.09c3.75-16.87 18.44-28.66 35.73-28.66z" fill="#edf5ff"/></g></svg>