<svg id="Layer_1" data-name="Layer 1" xmlns="http://www.w3.org/2000/svg" viewBox="0 0 125 122.14"><defs><style>.cls-1,.cls-2{fill:#160737;}.cls-1{fill-rule:evenodd;}</style></defs><path class="cls-1" d="M248.77,331.57V299.43c0-1.79.75-2.69,2.24-2.69s2.29.9,2.29,2.69v32.14c0,1.83-.77,2.75-2.29,2.75S248.77,333.4,248.77,331.57Zm9.8,0V299.43q0-8-7.56-8t-7.51,8v32.14q0,8,7.51,8T258.57,331.57Z" transform="translate(-243.5 -226.93)"/><polygon class="cls-1" points="17.64 65 17.64 112.14 30.65 112.14 30.65 106.87 22.91 106.87 22.91 65 17.64 65"/><path class="cls-1" d="M284.4,291.93q-.51,2.91-1.14,5.87c-.42,2-.82,3.81-1.18,5.53s-.68,3.21-1,4.49-.47,2.19-.55,2.72c-.07-.53-.24-1.44-.51-2.72s-.57-2.77-.92-4.47L278,297.83q-.61-3-1.12-5.9h-5.56l6.3,26.52v20.62H283V318.45l6.53-26.52Z" transform="translate(-243.5 -226.93)"/><path class="cls-1" d="M306.92,291.93q-.87,8-1.49,13.46c-.42,3.67-.79,6.81-1.09,9.42s-.57,4.85-.8,6.71-.44,3.6-.63,5.24c-.19-1.68-.4-3.44-.6-5.27s-.47-4.06-.78-6.68-.67-5.74-1.09-9.39-.91-8.15-1.49-13.49h-7v47.14h4.87V325.32q0-4.63-.06-9.22c0-3.05-.1-6.13-.17-9.22l4.12,32.19h4.59q.8-6.24,1.4-11c.4-3.15.76-6,1.09-8.48s.63-4.76.91-6.78.57-4,.84-6c-.08,3.09-.14,6.17-.18,9.22s-.05,6.13-.05,9.22v13.75h4.86V291.93Z" transform="translate(-243.5 -226.93)"/><path class="cls-1" d="M322.21,297.25h2.18a2.92,2.92,0,0,1,2.29.78,3.48,3.48,0,0,1,.69,2.37v8c0,2.1-1,3.15-2.92,3.15h-2.24Zm10.37,10.95v-7.74c0-3-.65-5.14-1.95-6.5s-3.38-2-6.24-2h-7.45v47.14h5.27v-22.4h2.24c2.78,0,4.84-.66,6.15-2S332.58,311.17,332.58,308.2Z" transform="translate(-243.5 -226.93)"/><path class="cls-1" d="M335.27,266.16v65.41q0,8,7.51,8t7.5-8V233L345,226.93V331.57c0,1.83-.74,2.75-2.23,2.75s-2.24-.92-2.24-2.75V260.48Z" transform="translate(-243.5 -226.93)"/><path class="cls-1" d="M368.5,331.8V325a23.32,23.32,0,0,0-.11-2.37,13.86,13.86,0,0,0-.35-1.89,9.07,9.07,0,0,0-.6-1.63,11.11,11.11,0,0,0-.94-1.58c-.46-.65-1-1.36-1.64-2.14s-1.27-1.55-1.92-2.3L361.11,311a14.55,14.55,0,0,1-1.26-1.6,3.85,3.85,0,0,1-.74-1.49,7.39,7.39,0,0,1-.18-1.72v-7c0-1.64.75-2.46,2.24-2.46a2,2,0,0,1,1.72.69,3,3,0,0,1,.51,1.83v8.54h4.93v-8.6c0-2.63-.55-4.59-1.63-5.87s-2.94-1.92-5.53-1.92q-7.62,0-7.62,7.79v7.05a15,15,0,0,0,.31,3.38,8.57,8.57,0,0,0,1.12,2.58,22.33,22.33,0,0,0,1.4,1.89l1.84,2.23c.63.77,1.25,1.5,1.86,2.21s1.11,1.31,1.49,1.8a8.67,8.67,0,0,1,1.32,2.21,7.66,7.66,0,0,1,.34,2.55v6.7c0,1.68-.76,2.52-2.29,2.52a2.1,2.1,0,0,1-1.75-.69,2.89,2.89,0,0,1-.54-1.83v-10h-5.1v10a8.45,8.45,0,0,0,1.77,5.78q1.79,2,5.73,2t5.7-2a8.5,8.5,0,0,0,1.75-5.78" transform="translate(-243.5 -226.93)"/><path class="cls-2" d="M319.82,347.65l1.54-2.88h-1.08l-1,1.85-1-1.85h-1.08l1.57,2.91V349h1.08Zm-5.12.47v-3.35h-1.08V349h2.89v-.9Zm-4,0v-3.35h-1.08V349h2.88v-.9Zm-3.86-.7h-1.22l.62-1.57Zm.32.82.3.78h1.15l-1.79-4.25h-1.11L303.88,349H305l.31-.78Zm-4.28.78v-4.25h-1v2.62l-2-2.62h-1V349h1v-2.61l2,2.61Zm-7.39-3.38a1.2,1.2,0,0,1,1.18,1.26,1.22,1.22,0,0,1-1.18,1.27,1.24,1.24,0,0,1-1.2-1.27A1.22,1.22,0,0,1,295.49,345.64Zm0-.91a2.17,2.17,0,1,0,2.3,2.16A2.17,2.17,0,0,0,295.48,344.73ZM292,349v-4.25h-1.08V349Zm-2.15-3.38v-.87h-3.63v.87h1.27V349h1.08v-3.38Zm-6.9,0h.72c.47,0,.74.23.74.67s-.27.68-.74.68H283Zm-1.08-.85V349H283v-1.2h.77a1.49,1.49,0,0,0,1.71-1.57c0-.94-.62-1.48-1.71-1.48Zm-1.37.85v-.85h-3.33V349h3.39v-.85h-2.31v-.85h2v-.85h-2v-.85Zm-6.14-.89a2.17,2.17,0,1,0,0,4.34,2.55,2.55,0,0,0,1.75-.78l-.63-.66a1.58,1.58,0,0,1-1.06.49,1.24,1.24,0,0,1,0-2.48,1.45,1.45,0,0,1,1.06.55l.63-.74A2.51,2.51,0,0,0,274.37,344.73Zm-4.52,2.07,1.4-2H270l-.82,1.24-.82-1.24h-1.26l1.43,2.08L267,349h1.25l.92-1.35.92,1.35h1.29ZM266,345.62v-.85h-3.33V349h3.4v-.85h-2.32v-.85h2v-.85h-2v-.85Zm-6.71,0v-.85H256V349h3.39v-.85h-2.31v-.85h2v-.85h-2v-.85Zm-6,3.4,1.67-4.25h-1.11l-1.09,3.13-1.09-3.13h-1.15l1.65,4.25Zm-3.8,0v-4.25H248.4V349Zm-4-.9v-3.35H244.4V349h2.88v-.9Z" transform="translate(-243.5 -226.93)"/><polygon class="cls-1" points="7.05 51.94 7.05 50.29 0.79 50.29 0.79 51.94 3.03 51.94 3.03 61.82 4.82 61.82 4.82 51.94 7.05 51.94"/><polygon class="cls-1" points="14.78 61.82 14.78 50.29 12.99 50.29 12.99 55.09 10.46 55.09 10.46 50.29 8.67 50.29 8.67 61.82 10.46 61.82 10.46 56.74 12.99 56.74 12.99 61.82 14.78 61.82"/><polygon class="cls-1" points="21.76 50.29 16.53 50.29 16.53 61.82 21.76 61.82 21.76 60.17 18.32 60.17 18.32 56.62 20.85 56.62 20.85 54.97 18.32 54.97 18.32 51.94 21.76 51.94 21.76 50.29"/></svg>