<svg xmlns="http://www.w3.org/2000/svg" width="114" height="114" viewBox="0 0 114 114">
  <g id="Group_2412" data-name="Group 2412" transform="translate(-423 -5293)">
    <rect id="Rectangle_92" data-name="Rectangle 92" width="114" height="114" transform="translate(423 5293)" fill="#fff" opacity="0"/>
    <g id="Group_2411" data-name="Group 2411" transform="translate(-151.911 -634)">
      <path id="Path_2208" data-name="Path 2208" d="M123.229,95.471h-17.3a3.132,3.132,0,0,1-3.112-3.147V56.693a3.132,3.132,0,0,1,3.112-3.147h21.846a.725.725,0,0,1,0,1.45H105.93a1.682,1.682,0,0,0-1.678,1.7V92.325a1.682,1.682,0,0,0,1.678,1.7h17.284a.721.721,0,0,1,.717.725.7.7,0,0,1-.7.725Zm42.669,0H148.6a.725.725,0,0,1,0-1.45h17.284a1.682,1.682,0,0,0,1.678-1.7V56.693a1.682,1.682,0,0,0-1.678-1.7h-21.83a.725.725,0,0,1,0-1.45H165.9a3.132,3.132,0,0,1,3.112,3.147V92.325a3.142,3.142,0,0,1-3.112,3.147Z" transform="translate(496.093 5900.247)" fill="#e1a497" fill-rule="evenodd"/>
      <path id="Path_2209" data-name="Path 2209" d="M216.139,276.149a.355.355,0,0,0-.348.355v2.823a.369.369,0,0,0,.348.37h32.408a.355.355,0,0,0,.348-.355v-2.823a.355.355,0,0,0-.348-.355Zm32.424,5.013H216.139a1.806,1.806,0,0,1-1.784-1.82v-2.823a1.806,1.806,0,0,1,1.784-1.82h32.408a1.806,1.806,0,0,1,1.784,1.82v2.823a1.783,1.783,0,0,1-1.768,1.82Z" transform="translate(399.656 5708.635)" fill="#e1a497" fill-rule="evenodd"/>
      <path id="Path_2210" data-name="Path 2210" d="M239.348,340.67a.728.728,0,0,1-.725-.694,68.153,68.153,0,0,0-7.358-27.442.735.735,0,0,1,1.311-.663,69.638,69.638,0,0,1,7.512,28.027.748.748,0,0,1-.694.771h-.047Z" transform="translate(384.886 5676.509)" fill="#e1a497" fill-rule="evenodd"/>
      <path id="Path_2211" data-name="Path 2211" d="M403.775,340.7h-.047a.739.739,0,0,1-.694-.771,69.7,69.7,0,0,1,7.512-28.027.735.735,0,1,1,1.312.663,68.389,68.389,0,0,0-7.358,27.442.718.718,0,0,1-.725.694Z" transform="translate(236.006 5676.48)" fill="#e1a497" fill-rule="evenodd"/>
      <path id="Path_2212" data-name="Path 2212" d="M247.463,317.6a.75.75,0,0,1-.694-.478.737.737,0,0,1,.432-.941,14.038,14.038,0,0,0,5.862-4.319.735.735,0,1,1,1.141.925,15.432,15.432,0,0,1-6.494,4.766.639.639,0,0,1-.246.046Z" transform="translate(371.427 5676.68)" fill="#e1a497" fill-rule="evenodd"/>
      <path id="Path_2213" data-name="Path 2213" d="M262.394,323.011a.728.728,0,0,1-.694-.493.71.71,0,0,1,.447-.925,63.112,63.112,0,0,0,18.079-9.81.725.725,0,0,1,.895,1.141,64.088,64.088,0,0,1-18.494,10.042.416.416,0,0,1-.232.047Z" transform="translate(358.424 5676.603)" fill="#e1a497" fill-rule="evenodd"/>
      <path id="Path_2214" data-name="Path 2214" d="M276.584,359.2a.727.727,0,0,1-.694-.509.717.717,0,0,1,.478-.91,62.671,62.671,0,0,0,22.289-12.432.733.733,0,1,1,.956,1.111,64.307,64.307,0,0,1-22.8,12.725,1.133,1.133,0,0,1-.231.016Z" transform="translate(346.081 5647.512)" fill="#e1a497" fill-rule="evenodd"/>
      <path id="Path_2215" data-name="Path 2215" d="M284.968,444.5a.74.74,0,0,1-.71-.54.73.73,0,0,1,.509-.895,63.224,63.224,0,0,0,17.353-7.635.728.728,0,0,1,.771,1.234,64.549,64.549,0,0,1-17.754,7.82c-.047,0-.108.015-.17.015Z" transform="translate(338.862 5569.421)" fill="#e1a497" fill-rule="evenodd"/>
      <path id="Path_2216" data-name="Path 2216" d="M311.516,322.979a.759.759,0,0,1-.247-.047,64.29,64.29,0,0,1-18.494-10.041.725.725,0,1,1,.895-1.141,63.089,63.089,0,0,0,18.079,9.81.723.723,0,0,1,.447.925.709.709,0,0,1-.679.493Z" transform="translate(331.695 5676.634)" fill="#e1a497" fill-rule="evenodd"/>
      <path id="Path_2217" data-name="Path 2217" d="M270.155,359.108a1.041,1.041,0,0,1-.216-.031,64.087,64.087,0,0,1-22.8-12.725.733.733,0,1,1,.956-1.111,62.9,62.9,0,0,0,22.289,12.432.722.722,0,0,1,.478.91.755.755,0,0,1-.71.524Z" transform="translate(371.195 5647.606)" fill="#e1a497" fill-rule="evenodd"/>
      <path id="Path_2218" data-name="Path 2218" d="M293.57,444.4a.779.779,0,0,1-.185-.031,64.545,64.545,0,0,1-17.754-7.82.728.728,0,1,1,.771-1.234,62.749,62.749,0,0,0,17.353,7.635.73.73,0,0,1,.509.895.707.707,0,0,1-.694.555Z" transform="translate(346.614 5569.52)" fill="#e1a497" fill-rule="evenodd"/>
      <path id="Path_2219" data-name="Path 2219" d="M403.685,317.551a.692.692,0,0,1-.247-.047,15.567,15.567,0,0,1-6.494-4.766.723.723,0,0,1,.108-1.033.736.736,0,0,1,1.033.108,14.132,14.132,0,0,0,5.862,4.319.725.725,0,0,1,.432.941.764.764,0,0,1-.694.479Z" transform="translate(241.439 5676.725)" fill="#e1a497" fill-rule="evenodd"/>
      <path id="Path_2220" data-name="Path 2220" d="M259.137,34.386a12.787,12.787,0,1,0,12.787,12.787A12.8,12.8,0,0,0,259.137,34.386Zm0,27.025a14.237,14.237,0,1,1,14.237-14.237A14.252,14.252,0,0,1,259.137,61.41Z" transform="translate(372.878 5918.065)" fill="#e1a497" fill-rule="evenodd"/>
      <path id="Path_2221" data-name="Path 2221" d="M281.347,71.326a.729.729,0,0,1-.725-.617,15.646,15.646,0,0,1,1.712-10.828c1.435-2.946,2.561-5.26-.386-11a.735.735,0,0,1,1.312-.663c3.27,6.386,1.866,9.27.4,12.309a14.268,14.268,0,0,0-1.589,9.949.744.744,0,0,1-.6.848h-.124Z" transform="translate(342.329 5905.203)" fill="#e1a497" fill-rule="evenodd"/>
      <path id="Path_2222" data-name="Path 2222" d="M387.158,71.249a.339.339,0,0,1-.123-.015.737.737,0,0,1-.6-.848,14.268,14.268,0,0,0-1.589-9.949c-1.481-3.039-2.869-5.908.4-12.309a.735.735,0,1,1,1.311.663c-2.931,5.738-1.8,8.067-.386,11a15.582,15.582,0,0,1,1.712,10.828.729.729,0,0,1-.726.632Z" transform="translate(253.18 5905.28)" fill="#e1a497" fill-rule="evenodd"/>
      <path id="Path_2223" data-name="Path 2223" d="M345.43,61.394a.724.724,0,0,1-.725-.725V33.644a.725.725,0,1,1,1.45,0V60.669A.724.724,0,0,1,345.43,61.394Z" transform="translate(286.585 5918.081)" fill="#e1a497" fill-rule="evenodd"/>
      <path id="Path_2224" data-name="Path 2224" d="M274.972,90.368a.664.664,0,0,1-.293-.062,31.236,31.236,0,0,0-25.544,0,.729.729,0,1,1-.571-1.342,32.581,32.581,0,0,1,26.685,0,.731.731,0,0,1,.386.956.68.68,0,0,1-.663.447Z" transform="translate(370.092 5872.094)" fill="#e1a497" fill-rule="evenodd"/>
    </g>
  </g>
</svg>
