<svg xmlns="http://www.w3.org/2000/svg" width="114" height="114" viewBox="0 0 114 114">
  <g id="Group_2489" data-name="Group 2489" transform="translate(-1291 -5625)">
    <rect id="Rectangle_92" data-name="Rectangle 92" width="114" height="114" transform="translate(1291 5625)" fill="#fff" opacity="0"/>
    <path id="Path_2712" data-name="Path 2712" d="M95.622,63.472h0a7.786,7.786,0,0,0-7.753,7.8,8.221,8.221,0,0,0,.766,4.152,20.008,20.008,0,0,0,1.606,2.384c.068.1.124.175.178.254a19.963,19.963,0,0,1,1.308,2.217c.078.167.155.342.227.525h0c.057.143.11.295.161.448h0l-.956,5.528c-5.1,7.776-7.336,14.432-7.15,20.522.187,6.118,2.821,11.608,7.254,17.009h0a.588.588,0,0,0,.456.216h8.645a.589.589,0,0,0,.455-.216c4.434-5.4,7.067-10.891,7.254-17.009.187-6.09-2.045-12.745-7.149-20.521l-.957-5.53c.023-.067.047-.131.07-.2.031-.083.059-.172.091-.252a9.873,9.873,0,0,1,.467-1l.05-.089c.388-.71.78-1.251,1.019-1.65v0a26.558,26.558,0,0,0,1.784-2.636,8.221,8.221,0,0,0,.766-4.157,7.786,7.786,0,0,0-7.754-7.791c-.073,0-.132,0-.192.006h0a.553.553,0,0,0-.075,0l-.04,0h-.006a.456.456,0,0,0-.056,0l-.05,0-.051,0a.435.435,0,0,0-.054,0h-.006l-.044,0a.57.57,0,0,0-.069,0c-.061,0-.122-.005-.2-.005Zm25.456,0h0a7.786,7.786,0,0,0-7.753,7.8,8.221,8.221,0,0,0,.766,4.152,20.007,20.007,0,0,0,1.606,2.384c.068.1.124.175.178.254a19.936,19.936,0,0,1,1.309,2.217c.078.167.155.342.227.525h0c.057.143.11.295.161.448h0l-.956,5.528c-5.1,7.776-7.336,14.432-7.15,20.522.187,6.118,2.821,11.608,7.254,17.009h0a.59.59,0,0,0,.456.216h8.645a.589.589,0,0,0,.455-.216c4.434-5.4,7.067-10.891,7.254-17.009.187-6.09-2.045-12.745-7.149-20.521l-.957-5.53c.023-.067.047-.131.07-.2.031-.083.059-.172.091-.252a9.874,9.874,0,0,1,.467-1l.05-.089c.388-.71.78-1.251,1.019-1.65v0a26.533,26.533,0,0,0,1.784-2.636,8.221,8.221,0,0,0,.766-4.157,7.786,7.786,0,0,0-7.754-7.791c-.073,0-.132,0-.192.006h0a.555.555,0,0,0-.075,0l-.04,0H121.6a.456.456,0,0,0-.056,0l-.05,0-.051,0a.429.429,0,0,0-.054,0h-.006l-.044,0a.57.57,0,0,0-.069,0c-.061,0-.122-.005-.2-.005Zm25.458,0h0a7.786,7.786,0,0,0-7.753,7.8,8.221,8.221,0,0,0,.766,4.152,20.026,20.026,0,0,0,1.606,2.384c.068.1.124.175.178.254a19.938,19.938,0,0,1,1.309,2.217c.078.167.155.342.227.525h0c.057.143.11.295.161.448h0l-.956,5.528c-5.1,7.776-7.336,14.432-7.15,20.522.187,6.118,2.821,11.608,7.254,17.009h0a.589.589,0,0,0,.456.216h8.644a.589.589,0,0,0,.456-.216c4.434-5.4,7.067-10.891,7.254-17.009.187-6.09-2.045-12.745-7.149-20.521l-.957-5.53c.023-.067.047-.131.07-.2.031-.083.059-.172.091-.252a9.876,9.876,0,0,1,.467-1l.05-.089c.388-.71.78-1.251,1.019-1.65v0a26.559,26.559,0,0,0,1.784-2.636,8.221,8.221,0,0,0,.766-4.157,7.786,7.786,0,0,0-7.754-7.791c-.073,0-.132,0-.192.006h0a.547.547,0,0,0-.074,0l-.04,0h-.008a.456.456,0,0,0-.056,0l-.05,0-.051,0a.429.429,0,0,0-.054,0h-.005l-.043,0a.573.573,0,0,0-.07,0c-.061,0-.122-.005-.2-.005ZM95.62,64.65h0c.059,0,.13.006.214.008a.5.5,0,0,0,.058,0h0l.047,0h0a.465.465,0,0,0,.048,0H96l.02,0h.038l.028,0h0a.4.4,0,0,0,.052,0l.036,0h.008a.548.548,0,0,0,.061,0c.084,0,.155-.008.214-.008a6.591,6.591,0,0,1,6.575,6.624v.02a6.912,6.912,0,0,1-.637,3.592,16.612,16.612,0,0,1-1.34,1.985H91.023a16.653,16.653,0,0,1-1.342-1.987,6.9,6.9,0,0,1-.639-3.589h0c0-.007,0-.013,0-.02A6.591,6.591,0,0,1,95.62,64.65Zm25.456,0h0c.059,0,.13.006.214.008a.5.5,0,0,0,.058,0h0l.047,0a.47.47,0,0,0,.049,0h.012l.02,0h.038l.028,0h0a.4.4,0,0,0,.052,0l.036,0h.008a.548.548,0,0,0,.061,0c.084,0,.155-.008.214-.008a6.591,6.591,0,0,1,6.575,6.624v.02a6.912,6.912,0,0,1-.637,3.592,16.613,16.613,0,0,1-1.34,1.985H116.479a16.652,16.652,0,0,1-1.342-1.987,6.9,6.9,0,0,1-.639-3.589h0c0-.007,0-.013,0-.02a6.591,6.591,0,0,1,6.575-6.624Zm25.456,0h0c.059,0,.13.006.214.008a.484.484,0,0,0,.057,0h0l.047,0h0a.476.476,0,0,0,.049,0h.012l.02,0h.038l.028,0a.415.415,0,0,0,.053,0l.036,0h.008a.545.545,0,0,0,.061,0c.084,0,.154-.008.214-.008a6.591,6.591,0,0,1,6.576,6.624h0a.117.117,0,0,0,0,.02,6.912,6.912,0,0,1-.637,3.592,16.6,16.6,0,0,1-1.34,1.985H141.937a16.72,16.72,0,0,1-1.342-1.987,6.9,6.9,0,0,1-.639-3.589h0l0-.02a6.591,6.591,0,0,1,6.575-6.624ZM91.806,78.05h8.463a12.624,12.624,0,0,0-.993,1.869c-.083.184-.164.375-.242.572H93.04c-.078-.2-.16-.39-.243-.575a12.567,12.567,0,0,0-.991-1.866Zm25.456,0h8.463a12.626,12.626,0,0,0-.993,1.869c-.083.184-.164.375-.242.572H118.5c-.078-.2-.16-.39-.243-.575a12.567,12.567,0,0,0-.991-1.866Zm25.458,0h8.463a12.625,12.625,0,0,0-.993,1.869c-.083.184-.164.375-.242.572h-5.994c-.078-.2-.16-.39-.243-.575a12.568,12.568,0,0,0-.991-1.866ZM93.23,81.681h5.612l.818,4.726H92.414Zm25.456,0H124.3l.818,4.726H117.87Zm25.458,0h5.612l.818,4.726h-7.246Zm-52.093,5.9h7.969c4.941,7.575,7.045,13.944,6.87,19.678s-2.608,10.88-6.83,16.083h-8.05c-4.222-5.2-6.654-10.359-6.829-16.083s1.928-12.1,6.869-19.678Zm25.456,0h7.969c4.941,7.575,7.045,13.944,6.87,19.678s-2.608,10.88-6.83,16.083h-8.05c-4.222-5.2-6.654-10.359-6.829-16.083s1.928-12.1,6.869-19.678Zm25.458,0h7.969c4.941,7.575,7.045,13.944,6.87,19.678s-2.608,10.88-6.83,16.083h-8.05c-4.222-5.2-6.654-10.359-6.829-16.083s1.928-12.1,6.869-19.678Zm-40.65,9.273a.59.59,0,0,0-.475.895c2.686,4.556,1.918,12.083-.023,16.069h0a.589.589,0,1,0,1.059.515c2.133-4.381,2.99-12.075-.02-17.182a.588.588,0,0,0-.541-.3Zm25.456,0a.589.589,0,0,0-.475.895c2.686,4.556,1.918,12.083-.023,16.069h0a.589.589,0,1,0,1.059.515c2.133-4.381,2.99-12.075-.02-17.182a.589.589,0,0,0-.541-.3Zm25.458,0h0a.589.589,0,0,0-.475.895c2.686,4.556,1.918,12.083-.023,16.069h0a.589.589,0,1,0,1.059.516c2.133-4.381,2.99-12.075-.02-17.183a.589.589,0,0,0-.541-.3Z" transform="translate(1227.001 5587.528)" fill="#e1a497" stroke="#e1a497" stroke-width="0.2"/>
  </g>
</svg>
