<svg xmlns="http://www.w3.org/2000/svg" width="114" height="114" viewBox="0 0 114 114">
  <g id="Group_2492" data-name="Group 2492" transform="translate(-1526 -5625)">
    <rect id="Rectangle_92" data-name="Rectangle 92" width="114" height="114" transform="translate(1526 5625)" fill="#fff" opacity="0"/>
    <g id="Group_2491" data-name="Group 2491" transform="translate(1377.872 5618.038)">
      <path id="Path_2713" data-name="Path 2713" d="M185.221,94.015h39.615V33.909H185.221Zm40.161,1.093H184.674a.545.545,0,0,1-.546-.546v-61.2a.546.546,0,0,1,.546-.547h40.708a.547.547,0,0,1,.546.547v61.2a.547.547,0,0,1-.546.546Z" fill="#e1a497"/>
      <path id="Path_2714" data-name="Path 2714" d="M210.274,117.572H243V64.482H210.274Zm33.269,1.093H209.727a.547.547,0,0,1-.547-.546V63.936a.547.547,0,0,1,.547-.546h33.816a.546.546,0,0,1,.546.546v54.182A.546.546,0,0,1,243.543,118.664Z" transform="translate(-21.895 -26.722)" fill="#e1a497"/>
      <path id="Path_2715" data-name="Path 2715" d="M327.51,118.668a.545.545,0,0,1-.479-.807c6.046-11.128,7.61-23.7,4.65-37.367a63.136,63.136,0,0,0-5.844-16.282.546.546,0,0,1,.948-.544,64.271,64.271,0,0,1,5.963,16.6,60.618,60.618,0,0,1,1.286,17.75,51.07,51.07,0,0,1-6.044,20.371.544.544,0,0,1-.48.285Z" transform="translate(-123.79 -26.726)" fill="#e1a497"/>
      <path id="Path_2716" data-name="Path 2716" d="M386.278,194.381H373.04a.546.546,0,0,1,0-1.093h13.238a.546.546,0,0,1,0,1.093Z" transform="translate(-164.632 -140.252)" fill="#e1a497"/>
      <path id="Path_2717" data-name="Path 2717" d="M394.626,255.931H382.593a.546.546,0,1,1,0-1.093h12.034a.546.546,0,0,1,0,1.093Z" transform="translate(-172.98 -194.047)" fill="#e1a497"/>
      <path id="Path_2718" data-name="Path 2718" d="M395.989,317.481H384.152a.546.546,0,1,1,0-1.093h11.837a.546.546,0,0,1,0,1.093Z" transform="translate(-174.343 -247.842)" fill="#e1a497"/>
      <path id="Path_2719" data-name="Path 2719" d="M389.788,378.871H377.057a.546.546,0,1,1,0-1.093h12.731a.546.546,0,0,1,0,1.093Z" transform="translate(-168.142 -301.497)" fill="#e1a497"/>
      <path id="Path_2720" data-name="Path 2720" d="M254.172,271.357a.478.478,0,1,0,0,.956h6.019a.478.478,0,1,0,0-.956Zm6.019,2.049h-6.019a1.571,1.571,0,1,1,0-3.142h6.019a1.571,1.571,0,1,1,0,3.142Z" transform="translate(-59.845 -207.529)" fill="#e1a497"/>
      <path id="Path_2721" data-name="Path 2721" d="M235.089,256.037a2.408,2.408,0,1,0,1.824,3.979h-1.107a1.571,1.571,0,1,1,0-3.142h1.107a2.419,2.419,0,0,0-1.824-.837Zm0,5.909a3.5,3.5,0,1,1,3.284-4.716.545.545,0,0,1-.512.735h-2.054a.478.478,0,1,0,0,.956h2.054a.547.547,0,0,1,.512.737,3.515,3.515,0,0,1-3.284,2.287Z" transform="translate(-41.479 -194.14)" fill="#e1a497"/>
    </g>
  </g>
</svg>
