<svg id="icons" enable-background="new 0 0 64 64" height="512" viewBox="0 0 64 64" width="512" xmlns="http://www.w3.org/2000/svg"><g><g><path d="m23.98 15.49-3 3v-5c0-4.971 4.029-9 9-9h8v4c2.77 0 5 2.239 5 5v5l-3-3s-3.711 2-8 2c-4.28 0-8-2-8-2z" fill="#965353"/></g><g><path d="m37.98 11.49c1.103 0 2 .897 2 2v2l3 3v-5c0-2.761-2.23-5-5-5v-4h-3v4c0 1.657 1.343 3 3 3z" fill="#844747"/></g><g><path d="m42.98 18.49v4c0 4.279-2.44 7.979-6 9.8-1.5.77-3.2 1.2-5 1.2-1.801 0-3.5-.431-5-1.2-3.561-1.82-6-5.521-6-9.8v-4l3-3s3.72 2 8 2c4.289 0 8-2 8-2z" fill="#eac6bb"/></g><g><path d="m39.98 15.49-.003.002v6.998c0 4.279-2.44 7.979-6 9.8-1.075.552-2.255.92-3.499 1.09.492.067.991.11 1.502.11 1.8 0 3.5-.431 5-1.2 3.56-1.82 6-5.521 6-9.8v-4z" fill="#d3b1a9"/></g><g><path d="m26.98 35.49v-3.2c1.5.77 3.199 1.2 5 1.2 1.8 0 3.5-.431 5-1.2v3.2h4c3.319 0 6 2.689 6 6v.289 2.711.01h-30v-.01-2.711-.289c0-3.311 2.689-6 6-6z" fill="#eac6bb"/></g><g><g><path d="m40.98 35.49h-3.003c3.319 0 6 2.689 6 6v.289 2.711.01h3.003v-.01-2.711-.289c0-3.31-2.68-6-6-6z" fill="#d3b1a9"/></g></g><g><path d="m23.999 45.488c-.553 0-1-.447-1-1v-1.998c0-.553.447-1 1-1s1 .447 1 1v1.998c0 .553-.447 1-1 1z" fill="#d3b1a9"/></g><g><path d="m40 45.488c-.553 0-1-.447-1-1v-1.998c0-.553.447-1 1-1s1 .447 1 1v1.998c0 .553-.447 1-1 1z" fill="#d3b1a9"/></g><g><path d="m8 54.51-.24.25-.01-.01c-1.09-1.09-1.76-2.59-1.76-4.25 0-3.311 2.689-6 6.01-6h4.98 30 5.02c3.32 0 6.01 2.689 6.01 6 0 1.66-.67 3.16-1.76 4.25v.01l-.25-.25-2 2-1.99-1.99-1.99 1.99h-.02l-2-2-2 2-2-2-2 2-2-2-2 2-2-2-2 2-2-2-2 2-2-2-2 2-2-2-2 2-2-2-2 2-2-2-2 2-2-2-2 2z" fill="#656d78"/></g><g><path d="m14 56.51 2-2 2 2 2-2 2 2 2-2 2 2 2-2 2 2 2-2 2 2 2-2 2 2 2-2 2 2 2-2 2 2 2-2 2 2h.02l1.99-1.99 1.99 1.99 2-2 .25.25 1.75 1.75 2-2 2 2 1-1v4h-62v-4l1 1 2-2 2 2 1.76-1.75.24-.25 2 2 2-2z" fill="#4a89dc"/></g><g><g><g><path d="m62 57.51c-.256 0-.512-.098-.707-.293-.391-.391-.391-1.023 0-1.414l1-1c.391-.391 1.023-.391 1.414 0s.391 1.023 0 1.414l-1 1c-.195.195-.451.293-.707.293z" fill="#5d9cec"/></g><g><path d="m62 57.51c-.256 0-.512-.098-.707-.293l-2-2.002c-.391-.391-.391-1.024 0-1.414.391-.391 1.023-.391 1.414 0l2 2.002c.391.391.391 1.024 0 1.414-.195.195-.451.293-.707.293z" fill="#5d9cec"/></g><g><path d="m58 57.51c-.256 0-.512-.098-.707-.293-.391-.39-.391-1.023 0-1.414l2-2.002c.391-.391 1.023-.391 1.414 0 .391.39.391 1.023 0 1.414l-2 2.002c-.195.195-.451.293-.707.293z" fill="#5d9cec"/></g><g><path d="m58 57.51c-.256 0-.512-.098-.707-.293l-2-2.002c-.391-.391-.391-1.024 0-1.414.391-.391 1.023-.391 1.414 0l2 2.002c.391.391.391 1.024 0 1.414-.195.195-.451.293-.707.293z" fill="#5d9cec"/></g><g><path d="m54 57.51c-.256 0-.512-.098-.707-.293-.391-.39-.391-1.023 0-1.414l2-2.002c.391-.391 1.023-.391 1.414 0 .391.39.391 1.023 0 1.414l-2 2.002c-.195.195-.451.293-.707.293z" fill="#5d9cec"/></g><g><path d="m54 57.51c-.256 0-.512-.098-.707-.293l-2-2.002c-.391-.391-.391-1.024 0-1.414.391-.391 1.023-.391 1.414 0l2 2.002c.391.391.391 1.024 0 1.414-.195.195-.451.293-.707.293z" fill="#5d9cec"/></g><g><path d="m50 57.51c-.256 0-.512-.098-.707-.293l-2-2.002c-.391-.391-.391-1.024 0-1.414.391-.391 1.023-.391 1.414 0l2 2.002c.391.391.391 1.024 0 1.414-.195.195-.451.293-.707.293z" fill="#5d9cec"/></g><g><path d="m46 57.51c-.256 0-.512-.098-.707-.293-.391-.39-.391-1.023 0-1.414l2-2.002c.391-.391 1.023-.391 1.414 0 .391.39.391 1.023 0 1.414l-2 2.002c-.195.195-.451.293-.707.293z" fill="#5d9cec"/></g><g><path d="m50.016 57.51c-.256 0-.512-.098-.707-.293-.391-.39-.391-1.023 0-1.414l2-2.002c.391-.391 1.023-.391 1.414 0 .391.39.391 1.023 0 1.414l-2 2.002c-.196.195-.452.293-.707.293z" fill="#5d9cec"/></g><g><path d="m46 57.51c-.256 0-.512-.098-.707-.293l-2-2.002c-.391-.391-.391-1.024 0-1.414.391-.391 1.023-.391 1.414 0l2 2.002c.391.391.391 1.024 0 1.414-.195.195-.451.293-.707.293z" fill="#5d9cec"/></g><g><path d="m42 57.51c-.256 0-.512-.098-.707-.293-.391-.39-.391-1.023 0-1.414l2-2.002c.391-.391 1.023-.391 1.414 0 .391.39.391 1.023 0 1.414l-2 2.002c-.195.195-.451.293-.707.293z" fill="#5d9cec"/></g><g><path d="m42 57.51c-.256 0-.512-.098-.707-.293l-2-2.002c-.391-.391-.391-1.024 0-1.414.391-.391 1.023-.391 1.414 0l2 2.002c.391.391.391 1.024 0 1.414-.195.195-.451.293-.707.293z" fill="#5d9cec"/></g><g><path d="m38 57.51c-.256 0-.512-.098-.707-.293-.391-.39-.391-1.023 0-1.414l2-2.002c.391-.391 1.023-.391 1.414 0 .391.39.391 1.023 0 1.414l-2 2.002c-.195.195-.451.293-.707.293z" fill="#5d9cec"/></g><g><path d="m38 57.51c-.256 0-.512-.098-.707-.293l-2-2.002c-.391-.391-.391-1.024 0-1.414.391-.391 1.023-.391 1.414 0l2 2.002c.391.391.391 1.024 0 1.414-.195.195-.451.293-.707.293z" fill="#5d9cec"/></g><g><path d="m34 57.51c-.256 0-.512-.098-.707-.293-.391-.39-.391-1.023 0-1.414l2-2.002c.391-.391 1.023-.391 1.414 0 .391.39.391 1.023 0 1.414l-2 2.002c-.195.195-.451.293-.707.293z" fill="#5d9cec"/></g><g><path d="m34 57.51c-.256 0-.512-.098-.707-.293l-2-2.002c-.391-.391-.391-1.024 0-1.414.391-.391 1.023-.391 1.414 0l2 2.002c.391.391.391 1.024 0 1.414-.195.195-.451.293-.707.293z" fill="#5d9cec"/></g><g><path d="m30 57.51c-.256 0-.512-.098-.707-.293-.391-.39-.391-1.023 0-1.414l2-2.002c.391-.391 1.023-.391 1.414 0 .391.39.391 1.023 0 1.414l-2 2.002c-.195.195-.451.293-.707.293z" fill="#5d9cec"/></g><g><path d="m30 57.51c-.256 0-.512-.098-.707-.293l-2-2.002c-.391-.391-.391-1.024 0-1.414.391-.391 1.023-.391 1.414 0l2 2.002c.391.391.391 1.024 0 1.414-.195.195-.451.293-.707.293z" fill="#5d9cec"/></g><g><path d="m26 57.51c-.256 0-.512-.098-.707-.293-.391-.39-.391-1.023 0-1.414l2-2.002c.391-.391 1.023-.391 1.414 0 .391.39.391 1.023 0 1.414l-2 2.002c-.195.195-.451.293-.707.293z" fill="#5d9cec"/></g><g><path d="m26 57.51c-.256 0-.512-.098-.707-.293l-2-2.002c-.391-.391-.391-1.024 0-1.414.391-.391 1.023-.391 1.414 0l2 2.002c.391.391.391 1.024 0 1.414-.195.195-.451.293-.707.293z" fill="#5d9cec"/></g><g><path d="m22 57.51c-.256 0-.512-.098-.707-.293-.391-.39-.391-1.023 0-1.414l2-2.002c.391-.391 1.023-.391 1.414 0 .391.39.391 1.023 0 1.414l-2 2.002c-.195.195-.451.293-.707.293z" fill="#5d9cec"/></g><g><path d="m22 57.51c-.256 0-.512-.098-.707-.293l-2-2.002c-.391-.391-.391-1.024 0-1.414.391-.391 1.023-.391 1.414 0l2 2.002c.391.391.391 1.024 0 1.414-.195.195-.451.293-.707.293z" fill="#5d9cec"/></g><g><path d="m18 57.51c-.256 0-.512-.098-.707-.293-.391-.39-.391-1.023 0-1.414l2-2.002c.391-.391 1.023-.391 1.414 0 .391.39.391 1.023 0 1.414l-2 2.002c-.195.195-.451.293-.707.293z" fill="#5d9cec"/></g><g><path d="m18 57.51c-.256 0-.512-.098-.707-.293l-2-2.002c-.391-.391-.391-1.024 0-1.414.391-.391 1.023-.391 1.414 0l2 2.002c.391.391.391 1.024 0 1.414-.195.195-.451.293-.707.293z" fill="#5d9cec"/></g><g><path d="m14 57.51c-.256 0-.512-.098-.707-.293-.391-.39-.391-1.023 0-1.414l2-2.002c.391-.391 1.023-.391 1.414 0 .391.39.391 1.023 0 1.414l-2 2.002c-.195.195-.451.293-.707.293z" fill="#5d9cec"/></g><g><path d="m14 57.51c-.256 0-.512-.098-.707-.293l-2-2.002c-.391-.391-.391-1.024 0-1.414.391-.391 1.023-.391 1.414 0l2 2.002c.391.391.391 1.024 0 1.414-.195.195-.451.293-.707.293z" fill="#5d9cec"/></g><g><path d="m10 57.51c-.256 0-.512-.098-.707-.293-.391-.39-.391-1.023 0-1.414l2-2.002c.391-.391 1.023-.391 1.414 0 .391.39.391 1.023 0 1.414l-2 2.002c-.195.195-.451.293-.707.293z" fill="#5d9cec"/></g><g><path d="m10 57.51c-.256 0-.512-.098-.707-.293l-2-2.002c-.391-.391-.391-1.024 0-1.414.391-.391 1.023-.391 1.414 0l2 2.002c.391.391.391 1.024 0 1.414-.195.195-.451.293-.707.293z" fill="#5d9cec"/></g><g><path d="m6 57.51c-.256 0-.512-.098-.707-.293-.391-.39-.391-1.023 0-1.414l2-2.002c.391-.391 1.023-.391 1.414 0 .391.39.391 1.023 0 1.414l-2 2.002c-.195.195-.451.293-.707.293z" fill="#5d9cec"/></g><g><path d="m6 57.51c-.256 0-.512-.098-.707-.293l-2-2.002c-.391-.391-.391-1.024 0-1.414.391-.391 1.023-.391 1.414 0l2 2.002c.391.391.391 1.024 0 1.414-.195.195-.451.293-.707.293z" fill="#5d9cec"/></g><g><path d="m2 57.51c-.256 0-.512-.098-.707-.293-.391-.39-.391-1.023 0-1.414l2-2.002c.391-.391 1.023-.391 1.414 0 .391.39.391 1.023 0 1.414l-2 2.002c-.195.195-.451.293-.707.293z" fill="#5d9cec"/></g><g><path d="m2 57.51c-.256 0-.512-.098-.707-.293l-1-1c-.391-.391-.391-1.023 0-1.414s1.023-.391 1.414 0l1 1c.391.391.391 1.023 0 1.414-.195.195-.451.293-.707.293z" fill="#5d9cec"/></g></g></g></g></svg>