<?xml version="1.0" standalone="no"?>
<!DOCTYPE svg PUBLIC "-//W3C//DTD SVG 20010904//EN"
 "http://www.w3.org/TR/2001/REC-SVG-20010904/DTD/svg10.dtd">
<svg version="1.0" xmlns="http://www.w3.org/2000/svg"
 width="512.000000pt" height="512.000000pt" viewBox="0 0 512.000000 512.000000"
 preserveAspectRatio="xMidYMid meet">

<g transform="translate(0.000000,512.000000) scale(0.100000,-0.100000)"
fill="#000000" stroke="none">
<path d="M2495 5001 c-22 -11 -435 -321 -919 -690 l-878 -671 -100 0 c-177 0
-188 -16 -188 -281 0 -205 8 -236 65 -263 18 -9 58 -16 89 -16 l56 0 0 -1090
0 -1090 -128 0 c-190 0 -202 -13 -202 -224 l0 -134 -99 -4 c-89 -3 -102 -6
-125 -27 -39 -36 -48 -83 -44 -213 3 -126 15 -158 69 -185 35 -18 4903 -18
4938 0 54 27 66 59 69 185 4 130 -5 177 -44 213 -23 21 -36 24 -125 27 l-99 4
0 134 c0 211 -12 224 -202 224 l-128 0 0 1090 0 1090 56 0 c31 0 71 7 89 16
57 27 65 58 65 263 0 265 -11 281 -188 281 l-99 0 -890 679 c-490 373 -905
683 -923 690 -45 15 -68 14 -115 -8z m2132 -1457 c16 -22 18 -336 3 -365 -11
-19 -44 -19 -2070 -19 -2026 0 -2059 0 -2070 19 -6 11 -10 90 -10 185 0 145 2
168 18 184 16 16 126 17 2067 15 1933 -2 2050 -3 2062 -19z m-3539 -1551 l-3
-1088 -192 -3 -193 -2 0 1090 0 1090 195 0 195 0 -2 -1087z m2862 -3 l0 -1090
-1390 0 -1390 0 0 1090 0 1090 1390 0 1390 0 0 -1090z m470 5 l0 -1085 -195 0
-195 0 0 1085 0 1085 195 0 195 0 0 -1085z m318 -1177 c8 -8 12 -55 12 -145
l0 -133 -2190 0 -2190 0 0 133 c0 90 4 137 12 145 17 17 4339 17 4356 0z m276
-374 c8 -20 8 -228 0 -248 -6 -15 -231 -16 -2448 -16 -1886 0 -2445 3 -2454
12 -17 17 -17 239 0 256 9 9 568 12 2454 12 2217 0 2442 -1 2448 -16z"/>
<path d="M2207 3004 c-14 -14 -5 -38 94 -252 56 -119 128 -275 161 -346 l59
-130 -108 -234 c-64 -139 -114 -237 -124 -239 -9 -3 -30 -29 -49 -59 -22 -37
-39 -54 -53 -54 -11 0 -144 59 -296 132 -302 144 -332 153 -402 112 -120 -70
-194 -344 -130 -477 38 -79 60 -88 386 -157 340 -72 376 -74 430 -19 26 26 53
83 119 251 47 119 83 224 80 232 -6 15 173 416 186 416 13 0 192 -401 186
-416 -9 -23 162 -450 193 -480 59 -59 85 -58 439 17 322 68 345 77 383 156 58
120 2 369 -102 458 -36 30 -98 48 -136 39 -15 -4 -150 -65 -299 -135 -149 -71
-280 -129 -291 -129 -14 0 -31 17 -53 54 -19 30 -40 56 -49 59 -9 2 -61 101
-124 239 l-109 235 162 347 c88 192 160 355 158 364 -2 11 -13 17 -32 17 -28
0 -33 -9 -175 -317 -80 -175 -148 -318 -151 -318 -3 0 -71 143 -151 318 -129
280 -149 317 -170 320 -14 2 -28 0 -32 -4z m-370 -1268 c307 -145 312 -148
318 -166 8 -25 -60 -183 -87 -203 -24 -18 -30 -17 -284 37 -249 53 -260 56
-288 87 -27 31 -28 35 -24 108 7 122 71 241 129 241 10 0 116 -47 236 -104z
m1725 85 c41 -33 81 -135 86 -222 4 -72 3 -77 -24 -108 -28 -31 -39 -34 -288
-87 -254 -54 -260 -55 -284 -37 -28 21 -95 178 -87 204 6 18 517 267 551 268
12 1 32 -8 46 -18z"/>
</g>
</svg>
