<svg xmlns="http://www.w3.org/2000/svg" width="114" height="114" viewBox="0 0 114 114">
  <g id="Group_343" data-name="Group 343" transform="translate(-0.103)">
    <rect id="Rectangle_92" data-name="Rectangle 92" width="114" height="114" transform="translate(0.103)" fill="#fff" opacity="0"/>
    <g id="noun-conference-room-2239850" transform="translate(14 30)">
      <path id="Path_361" data-name="Path 361" d="M99.041,130.251l13.543-13.915a14.592,14.592,0,0,1,3.151-2.494c3.51-2,11.862-2.035,15.4-.166a14.172,14.172,0,0,1,3.452,2.66c4.571,4.524,9.047,9.3,13.543,13.915a7.092,7.092,0,0,1,1.594,2.215c.907,2.193-.587,3.684-2.43,4.62a29.783,29.783,0,0,1-9.282,2.33,130.8,130.8,0,0,1-26.594.152c-7.519-.755-15.342-2.563-14.005-6.886a6.169,6.169,0,0,1,1.627-2.431Zm56.038,18.569.025,3.247c-.012.285.909.3.9.007l-.064-3.268c-.006-.327.063-.3-.214-.274-.093.009-.188.013-.282.013-.4,0-.37-.131-.367.275Zm-.867,2.209-.019-2.481c0-.493.008-.247-.243-.581a1.093,1.093,0,0,1-.187-.763l-.021-2.146c-.008-.813.032-.606-.825-.417a18.97,18.97,0,0,1-3.3.472,8.05,8.05,0,0,1-6.5-2.531.442.442,0,0,1,.6-.652,7.23,7.23,0,0,0,5.873,2.3,21.892,21.892,0,0,0,4.429-.763c1.09-.278,2.218-.6,3.419-.938,1.231-.348,3.7-.816,4.521-1.725a3.563,3.563,0,0,0,.777-1.914c.766-4.884,1.415-9.834,2.275-14.694.323-1.827.549-3.1-.344-4.044-.536-.563-.378-.347-.259.1a6.5,6.5,0,0,1-.049,2.72L161.4,139.407c-.121.669-.212.7-.886.884l-7.751,2.083c-2.108.6-5.079.868-6.821-.713a.266.266,0,0,1,.358-.393c1.589,1.442,4.4,1.139,6.318.594l7.1-1.909c.714-.192.7-.106.041-.444-8.912-4.56-8.669-5.032.394-.394.758.391.661.533.8-.254l2.88-15.979a6.012,6.012,0,0,0,.057-2.491c-.265-1.005-.886-1.231-1.764-1.491a24.946,24.946,0,0,0-6.8-1.066c-1.442.052-1.624.569-2.005,1.845L150.255,129.8a.443.443,0,0,1-.849-.253l3.065-10.117c.481-1.608.928-2.408,2.824-2.477a26,26,0,0,1,8.411,1.554c2.989,1.255,2.684,2.976,2.176,5.846-.859,4.852-1.51,9.8-2.275,14.676a4.389,4.389,0,0,1-1,2.375c-1.039,1.145-3.434,1.556-4.937,1.981-.691.2-.519.136-.515.907l.012,2.888a1.1,1.1,0,0,1-.139.687c-.248.413-.222.144-.211.717l.048,2.433c.008.423-.061.394.315.215a18.222,18.222,0,0,1,3-1.292,2.415,2.415,0,0,1,1.227-.02c1.487.478,1.256,2.352-.41,2.462-.49.032-.369-.048-.848.181l-.852.407c-.667.319-.688.223,0,.5.751.3,1.515.587,2.261.9,2.357.97.319,3.931-1.75,2.211a3.036,3.036,0,0,0-1.093-.73l-2.9-1.135c-.534-.209-.389-.2-.907.06l-2.718,1.352c-.433.215-.3.181-.591.566-1.363,1.788-4.623-.9-2.028-2.26l1.971-1.035c.594-.312.638-.223.023-.474l-.376-.154c-.438-.178-.225-.083-.622.066a1.42,1.42,0,0,1-1.559-.475c-.86-1.63,1.112-2.684,2.949-1.865l1.923.813c.412.174.329.2.326-.267Zm2.1-3.863-.037-2.643c0-.789.166-.792-.532-.6-.243.067-.482.132-.717.195-.548.147-.42.1-.415.71l.023,2.353C154.642,147.682,156.314,147.773,156.314,147.167Zm-7.648-36.725a4.208,4.208,0,0,1,.013.617.266.266,0,0,1-.53-.023,2.44,2.44,0,0,0-.165-1.145c-.221-.467-.518-.517-.972-.659a18.3,18.3,0,0,0-5.046-.813c-.9.032-.95.2-1.268,1.01l-2.372,8.02a.443.443,0,1,1-.849-.25l2.378-8.043.012-.037c.451-1.153.779-1.54,2.067-1.587a18.932,18.932,0,0,1,6.138,1.133,3.2,3.2,0,0,1,1.469,1.076,2.468,2.468,0,0,1,.405,1.481.442.442,0,0,1-.884,0,1.8,1.8,0,0,0-.156-.815c-.243-.5-.3-.521-.241.033Zm7.979,4.828a4.258,4.258,0,0,1,.037,1.164.266.266,0,0,1-.53-.04,3.241,3.241,0,0,0-.16-1.489c-.249-.584-.6-.7-1.147-.868a21.336,21.336,0,0,0-5.961-.966c-1.216.044-1.289.475-1.63,1.457l-3.122,8.978a.442.442,0,1,1-.836-.291l3.132-9.007c.476-1.369.834-1.963,2.425-2.021a22.066,22.066,0,0,1,7.149,1.32,2.934,2.934,0,0,1,2.146,2.8.442.442,0,0,1-.884.017,1.893,1.893,0,0,0-.327-1.116c-.314-.385-.395-.441-.29.062Zm4.192,36.229c.7.032.963-.53.3-.742a1.606,1.606,0,0,0-.76.041,21.034,21.034,0,0,0-3.161,1.395c-.374.178-.232.16-.487.392a2.195,2.195,0,0,1-2.37.111c-.334-.251-.1-.281-.614-.5l-2.122-.9c-.485-.2-.85-.452-1.419-.242-1.02.376-.321,1.225.1.907a.98.98,0,0,1,.5-.182,1.166,1.166,0,0,1,.522.072l2.079.848c.94.383.858.249-.051.726l-3.374,1.772c-1.342.705.568,1.722,1.013.766a1.4,1.4,0,0,1,.753-.628l3.063-1.524c.589-.293.421-.3,1.031-.058,1.069.417,2.141.831,3.206,1.256a3.656,3.656,0,0,1,1.32.87c.974.81,1.981-.262.876-.7l-3.963-1.572c-.924-.366-.9-.237,0-.667l2.679-1.281a1.114,1.114,0,0,1,.867-.167ZM92.96,148.2l-.022,2.8c0,.519-.08.465.4.261l2.005-.848h0a2.151,2.151,0,0,1,2.362.055,1.475,1.475,0,0,1,.65,1.2v.013a1.3,1.3,0,0,1-1.322,1.21,1.208,1.208,0,0,1-.49-.088c-.4-.167-.154-.223-.645-.022l-.231.094c-.723.295-.652.192.047.561l1.858.976a1.494,1.494,0,0,1,.962,1.338,1.735,1.735,0,0,1-1.626,1.493,1.482,1.482,0,0,1-1.352-.556c-.479-.613-.17-.366-.922-.741L92.311,154.8c-.618-.308-.442-.308-1.082-.058l-2.8,1.1a3.036,3.036,0,0,0-1.093.73c-2.1,1.747-4.171-1.335-1.635-2.255h0l2.151-.853c.676-.268.662-.173.006-.487l-.911-.436c-.445-.213-.344-.129-.8-.158-1.656-.106-1.91-1.98-.412-2.462a4.052,4.052,0,0,1,2.625.55h0l1.528.728c.449.214.379.269.389-.222l.05-2.552c.009-.434-.009-.223-.206-.542a.96.96,0,0,1-.129-.333,2.044,2.044,0,0,1-.017-.426l.013-3.1c0-.6.074-.465-.516-.633-.823-.233-1.682-.477-2.68-.748a3.889,3.889,0,0,1-3.252-3.609c-.765-4.878-1.416-9.825-2.275-14.676-.508-2.87-.813-4.592,2.176-5.846a25.981,25.981,0,0,1,8.411-1.554c1.708.062,2.107.555,2.7,2.085l.012.035,3.113,10.408a.443.443,0,0,1-.849.253l-3.108-10.392c-.464-1.185-.59-1.457-1.9-1.5a24.994,24.994,0,0,0-6.837,1.076c-.867.258-1.468.492-1.729,1.481a6.033,6.033,0,0,0,.057,2.491l2.9,16.066c.111.618,0,.574.549.29,8.635-4.62,8.878-4.147.73.222-.734.378-.816.291-.012.506l7.059,1.9c2.394.681,4.568.931,6.516-.837a.266.266,0,0,1,.358.393c-2.092,1.9-4.441,1.689-7.019.956l-7.812-2.1c-.73-.2-.717-.275-.85-1.011l-2.935-16.288a6.506,6.506,0,0,1-.049-2.72c.251-.606.18-.622-.34-.012-.8.933-.577,2.185-.264,3.955.86,4.859,1.508,9.809,2.275,14.694a3.034,3.034,0,0,0,2.611,2.888c.864.235,1.794.5,2.687.751,1.2.34,2.33.66,3.419.938a21.892,21.892,0,0,0,4.429.763,7.243,7.243,0,0,0,5.878-2.3.442.442,0,0,1,.6.652,8.064,8.064,0,0,1-6.5,2.535,20,20,0,0,1-3.7-.562c-.488-.113-.42-.194-.425.3l-.025,2.555v0a.952.952,0,0,1-.425.79Zm-.914,3.667.024-2.959c0-.365,0-.389-.21-.384a2.543,2.543,0,0,1-.406.006c-.255-.035-.241-.072-.248.326l-.058,3c0,.417.894.4.9.009Zm-.868-4.272a2.35,2.35,0,0,0,1.071-.007c.322-.09.253-.21.256-.484l.024-2.381c.006-.547.111-.466-.392-.6q-.409-.11-.836-.228c-.5-.138-.423-.207-.425.308l-.011,2.724c0,.351-.1.559.314.669ZM99.1,109.661a2.441,2.441,0,0,0-.165,1.145.266.266,0,0,1-.53.023,3.907,3.907,0,0,1,.033-.778c.048-.309.087-.4-.168-.032a1.639,1.639,0,0,0-.249.975.442.442,0,0,1-.884,0,2.468,2.468,0,0,1,.405-1.481,4.41,4.41,0,0,1,2.517-1.427,18.757,18.757,0,0,1,5.09-.783c1.287.046,1.616.433,2.067,1.587l.012.037,2.446,8.273a.443.443,0,0,1-.849.249l-2.44-8.252c-.318-.81-.372-.978-1.268-1.01a17.954,17.954,0,0,0-4.855.761c-.507.145-.92.2-1.163.711Zm-7.94,5.032a3.232,3.232,0,0,0-.16,1.489.266.266,0,0,1-.53.04,4.89,4.89,0,0,1,.025-1.091c.068-.452.228-.828-.279-.135a1.887,1.887,0,0,0-.327,1.116.442.442,0,0,1-.884-.017,2.728,2.728,0,0,1,.5-1.619,3.742,3.742,0,0,1,1.649-1.182,22.066,22.066,0,0,1,7.149-1.32c1.475.053,1.834.487,2.351,1.808l.007.019,3.2,9.417a.443.443,0,0,1-.839.284l-3.2-9.406c-.383-.979-.468-1.2-1.554-1.237a21.429,21.429,0,0,0-6.116,1.016,1.328,1.328,0,0,0-.992.819ZM89.881,152.17c-.769-.366-1.674-.862-2.472-1.174a2.443,2.443,0,0,0-1.463-.2c-.571.19-.358.839.655.682a.85.85,0,0,1,.485.146l2.506,1.2c1.216.581,1.251.407,0,.9l-3.573,1.416-.012,0c-1.257.456-.235,1.578.769.744a3.672,3.672,0,0,1,1.32-.87c.946-.378,1.9-.747,2.85-1.118,1.006-.392.729-.409,1.695.072l2.839,1.412h0a1.262,1.262,0,0,1,.67.585c.446.956,2.355-.061,1.013-.766l-3.273-1.718c-.874-.445-.8-.491.009-.845l1.918-.782a1.1,1.1,0,0,1,1.024.11c.342.257,1-.312.354-.775-.576-.412-.941-.16-1.5.035l-2.274.961c-.518.219-.266.187-.586.463a2.222,2.222,0,0,1-2.362,0c-.305-.234-.14-.263-.595-.48Zm47.844-7.962a.444.444,0,0,1,.888,0v14.824c0,1.531-3.853,2.444-8.819,2.8a84.856,84.856,0,0,1-11.935-.007c-5.128-.365-9.162-1.292-9.162-2.793V144.193a.444.444,0,0,1,.888,0v14.554c0,.922,3.671,1.861,8.337,2.192a83.832,83.832,0,0,0,11.81.007c4.5-.322,7.994-1.215,7.994-2.164V144.207Zm11.317-7.469a.443.443,0,0,1,.853.236c-.547,1.97-3.373,3.354-7.716,4.248-1.253.257-2.637.477-4.132.661a127.443,127.443,0,0,1-26.707.194,59.522,59.522,0,0,1-5.973-.879c-4.306-.89-7.263-2.256-7.944-4.191a.443.443,0,0,1,.836-.295c.565,1.6,3.284,2.792,7.286,3.619a58.423,58.423,0,0,0,5.838.861,126.163,126.163,0,0,0,26.686-.2c1.421-.178,2.738-.388,3.933-.634,4.009-.824,6.593-2.011,7.04-3.617Zm-35.826-19.785L99.669,130.873a5.334,5.334,0,0,0-1.411,2.069c-1.062,3.434,6.106,4.995,13.143,5.7a128.671,128.671,0,0,0,26.569-.115A28.8,28.8,0,0,0,146.9,136.3c1.4-.709,2.719-1.78,2.011-3.494a6.232,6.232,0,0,0-1.405-1.929c-4.563-4.563-9.042-9.29-13.546-13.919a13.281,13.281,0,0,0-3.232-2.5c-3.268-1.726-11.308-1.695-14.552.152a13.729,13.729,0,0,0-2.955,2.343Z" transform="translate(-80.942 -107.3)" fill="#e1a497" stroke="#e1a497" stroke-width="0.2"/>
    </g>
  </g>
</svg>
