<svg id="Layer_3" enable-background="new 0 0 64 64" height="512" viewBox="0 0 64 64" width="512" xmlns="http://www.w3.org/2000/svg"><path d="m12 44h40v14h-40z" fill="#c18e59"/><path d="m6 44h6v18h-6z" fill="#674025"/><path d="m52 44h6v18h-6z" fill="#674025"/><path d="m2 38h60v6h-60z" fill="#976947"/><path d="m9 28v-4c0-3.314 2.686-6 6-6h6c3.314 0 6 2.686 6 6v4z" fill="#2b74ca"/><path d="m13.5 25c4.783 0 8.935-2.366 11.036-5.839-.992-.727-2.212-1.161-3.536-1.161h-6c-3.314 0-6 2.686-6 6v.253c1.398.476 2.911.747 4.5.747z" fill="#3d98f7"/><path d="m22 18-2 4-2-2-2 2-2-4" fill="#efbe9a"/><path d="m22 10h3c1.105 0 2 .895 2 2 0 1.105-.895 2-2 2h-3" fill="#efbe9a"/><path d="m14 10h-3c-1.105 0-2 .895-2 2 0 1.105.895 2 2 2h3" fill="#db9b7c"/><path d="m23 6v7c0 2.761-2.239 5-5 5-2.761 0-5-2.239-5-5v-7" fill="#db9b7c"/><path d="m17 17.899c2.282-.463 4-2.48 4-4.899v-7h-8v7c0 2.419 1.718 4.436 4 4.899z" fill="#efbe9a"/><path d="m15 6c0 2.209 3.791 4 6 4h4v-4c0-2.209-1.791-4-4-4h-6c-2.209 0-4 1.791-4 4v4c2.209 0 4-1.791 4-4z" fill="#a66d43"/><path d="m15 6c0 .383-.071.745-.171 1.096-.528-.774-.829-1.657-.829-2.596 0-.891.276-1.731.755-2.475.083-.005.161-.025.245-.025h6c2.209 0 4 1.791 4 4v3.01c-1.134.622-2.512.99-4 .99-2.209 0-6-1.791-6-4z" fill="#c18e59"/><path d="m37 28v-4c0-3.314 2.686-6 6-6h6c3.314 0 6 2.686 6 6v4z" fill="#2b74ca"/><path d="m41.5 25c4.783 0 8.935-2.366 11.036-5.839-.992-.727-2.212-1.161-3.536-1.161h-6c-3.314 0-6 2.686-6 6v.253c1.398.476 2.911.747 4.5.747z" fill="#3d98f7"/><path d="m50 18-2 4-2-2-2 2-2-4" fill="#efbe9a"/><path d="m50 10h3c1.105 0 2 .895 2 2 0 1.105-.895 2-2 2h-3" fill="#efbe9a"/><path d="m42 10h-3c-1.105 0-2 .895-2 2 0 1.105.895 2 2 2h3" fill="#db9b7c"/><path d="m51 6v7c0 2.761-2.239 5-5 5-2.761 0-5-2.239-5-5v-7" fill="#db9b7c"/><path d="m45 17.899c2.282-.463 4-2.48 4-4.899v-7h-8v7c0 2.419 1.718 4.436 4 4.899z" fill="#efbe9a"/><path d="m43 6c0 2.209 3.791 4 6 4h4v-4c0-2.209-1.791-4-4-4h-6c-2.209 0-4 1.791-4 4v4c2.209 0 4-1.791 4-4z" fill="#a66d43"/><path d="m43 6c0 .383-.071.745-.171 1.096-.528-.774-.829-1.657-.829-2.596 0-.891.276-1.731.755-2.475.083-.005.161-.025.245-.025h6c2.209 0 4 1.791 4 4v3.01c-1.134.622-2.512.99-4 .99-2.209 0-6-1.791-6-4z" fill="#c18e59"/><path d="m7 26h22v12h-22z" fill="#78b75b"/><path d="m35 26h22v12h-22z" fill="#78b75b"/><g fill="#fff"><circle cx="18" cy="32" r="2"/><circle cx="46" cy="32" r="2"/></g></svg>