<svg xmlns="http://www.w3.org/2000/svg" width="114" height="114" viewBox="0 0 114 114">
  <g id="Group_2487" data-name="Group 2487" transform="translate(-914 -5625)">
    <rect id="Rectangle_92" data-name="Rectangle 92" width="114" height="114" transform="translate(914 5625)" fill="#fff" opacity="0"/>
    <g id="Group_2486" data-name="Group 2486" transform="translate(-1724.227 -469)">
      <path id="Path_2705" data-name="Path 2705" d="M158.939,363.586a7.165,7.165,0,0,1-5.08-2.1l-.585-.585a5.353,5.353,0,0,0-7.564,0l-.583.585a7.2,7.2,0,0,1-10.161,0l-.585-.585a5.353,5.353,0,0,0-7.564,0l-.583.585a7.2,7.2,0,0,1-10.161,0l-.585-.585a5.353,5.353,0,0,0-7.564,0l-.583.585a7.2,7.2,0,0,1-10.161,0,.917.917,0,1,1,1.3-1.3,5.361,5.361,0,0,0,7.565,0l.583-.585a7.2,7.2,0,0,1,10.161,0l.585.585a5.353,5.353,0,0,0,7.564,0l.583-.585a7.2,7.2,0,0,1,10.161,0l.585.585a5.353,5.353,0,0,0,7.564,0l.583-.585a7.2,7.2,0,0,1,10.16,0l.585.585a5.353,5.353,0,0,0,7.564,0l.583-.585a7.2,7.2,0,0,1,10.161,0l.585.585a5.353,5.353,0,0,0,7.564,0,.917.917,0,0,1,1.3,1.3,7.2,7.2,0,0,1-10.16,0l-.585-.585a5.353,5.353,0,0,0-7.564,0l-.583.585a7.167,7.167,0,0,1-5.08,2.1Z" transform="translate(2555.313 5806.546)" fill="#e1a497"/>
      <path id="Path_2706" data-name="Path 2706" d="M214.293,430.234a5.8,5.8,0,0,1-4.117-1.7l-.457-.457a3.989,3.989,0,0,0-5.638,0l-.455.457a5.832,5.832,0,0,1-8.234,0l-.457-.457a4.083,4.083,0,0,0-5.638,0l-.455.457a5.832,5.832,0,0,1-8.234,0l-.457-.457a4.085,4.085,0,0,0-5.638,0l-.456.457a5.832,5.832,0,0,1-8.233,0l-.457-.457a4.081,4.081,0,0,0-5.637,0l-.457.457a5.832,5.832,0,0,1-8.233,0,.917.917,0,0,1,1.3-1.3,4,4,0,0,0,5.638,0l.457-.457a5.959,5.959,0,0,1,8.233,0l.457.457a3.993,3.993,0,0,0,5.637,0l.457-.457a5.959,5.959,0,0,1,8.233,0l.457.457a4,4,0,0,0,5.638,0l.455-.457a5.959,5.959,0,0,1,8.234,0l.457.457a4,4,0,0,0,5.638,0l.455-.457a5.961,5.961,0,0,1,8.235,0l.457.457a3.993,3.993,0,0,0,5.637,0,.917.917,0,0,1,1.3,1.3,5.808,5.808,0,0,1-4.118,1.7Z" transform="translate(2510.637 5750.447)" fill="#e1a497"/>
      <path id="Path_2707" data-name="Path 2707" d="M229.658,149.79a.917.917,0,0,1-.917-.917v-35.7a6.431,6.431,0,0,0-6.424-6.424h-3.821a.917.917,0,1,1,0-1.835h3.821a8.268,8.268,0,0,1,8.259,8.259v35.7a.917.917,0,0,1-.917.917Z" transform="translate(2455.214 6016.089)" fill="#e1a497"/>
      <path id="Path_2708" data-name="Path 2708" d="M358.891,150.148a.917.917,0,0,1-.917-.917V113.169a6.431,6.431,0,0,0-6.424-6.424h-3.821a.917.917,0,0,1,0-1.835h3.821a8.268,8.268,0,0,1,8.259,8.259v36.061a.917.917,0,0,1-.918.917Z" transform="translate(2348.005 6016.089)" fill="#e1a497"/>
      <path id="Path_2709" data-name="Path 2709" d="M306.019,307.449H283.995a.917.917,0,0,1,0-1.835h22.025a.917.917,0,0,1,0,1.835Z" transform="translate(2400.877 5849.591)" fill="#e1a497"/>
      <path id="Path_2710" data-name="Path 2710" d="M306.019,242.839H283.995a.917.917,0,1,1,0-1.835h22.025a.917.917,0,1,1,0,1.835Z" transform="translate(2400.877 5903.19)" fill="#e1a497"/>
      <path id="Path_2711" data-name="Path 2711" d="M306.019,178.219H283.995a.917.917,0,0,1,0-1.835h22.025a.917.917,0,0,1,0,1.835Z" transform="translate(2400.877 5956.797)" fill="#e1a497"/>
    </g>
  </g>
</svg>
