<svg xmlns="http://www.w3.org/2000/svg" width="114" height="114" viewBox="0 0 114 114">
  <g id="Group_2410" data-name="Group 2410" transform="translate(-151 -5334)">
    <rect id="Rectangle_91" data-name="Rectangle 91" width="114" height="114" transform="translate(151 5334)" fill="#fff" opacity="0"/>
    <g id="Group_2402" data-name="Group 2402" transform="translate(713.801 178.107)">
      <path id="Path_2622" data-name="Path 2622" d="M161.464,118.9a20.4,20.4,0,0,0-4.2-.873,3.036,3.036,0,0,0-2.308-1.635h0a2.711,2.711,0,0,0-2.037,1.256,21.7,21.7,0,0,0-13.614-.016,9.77,9.77,0,0,0-17.9,1.765,23.57,23.57,0,0,0-21.473-3.346A2.857,2.857,0,0,0,98,118.768v24.2a2.874,2.874,0,0,0,2.871,2.871h59.725a2.874,2.874,0,0,0,2.871-2.871V121.64a2.868,2.868,0,0,0-2-2.737Zm-6.506-1.359c1.83,0,4.02,7.279,4.02,10.145a4.02,4.02,0,0,1-8.04,0c0-2.866,2.189-10.145,4.02-10.145Zm-5.17,10.145a5.174,5.174,0,0,0,4.594,5.135v4.971H135.919A19.337,19.337,0,0,1,151.9,119.359a24.86,24.86,0,0,0-2.113,8.329Zm1.366-9.359h0a20.489,20.489,0,0,0-16.386,19.466h-3.782a23.459,23.459,0,0,0-2.581-10.176,20.737,20.737,0,0,1,22.751-9.29Zm-12.939-.3a21.951,21.951,0,0,0-10.438,8.442,23.49,23.49,0,0,0-5.394-6.31,8.622,8.622,0,0,1,15.831-2.132Zm-39.069.742a1.708,1.708,0,0,1,1.153-1.627,22.4,22.4,0,0,1,29.543,20.654H119.667v-2.822A4.023,4.023,0,0,0,123.113,131a18.135,18.135,0,0,0-1.038-4.927c-.866-2.446-1.867-3.687-2.982-3.687-2.671,0-4.021,7.159-4.021,8.614h0a4.023,4.023,0,0,0,3.446,3.974v2.822h-5.643a14.33,14.33,0,0,0-13.729-13.729Zm19.945,15.1A2.874,2.874,0,0,1,116.22,131a16.994,16.994,0,0,1,.98-4.543c.711-2.019,1.463-2.923,1.891-2.923s1.183.9,1.891,2.923h0A16.967,16.967,0,0,1,121.96,131a2.874,2.874,0,0,1-2.868,2.871Zm-19.945-8.656a13.184,13.184,0,0,1,12.58,12.584H99.146Zm63.17,17.749h0a1.723,1.723,0,0,1-1.722,1.723H100.868a1.723,1.723,0,0,1-1.722-1.723v-4.016h63.168Zm0-5.168h-6.78v-4.971a5.174,5.174,0,0,0,4.594-5.135,24.8,24.8,0,0,0-2.154-8.417,19.182,19.182,0,0,1,3.14.724,1.725,1.725,0,0,1,1.2,1.644Zm-57.158-29.387h7.6a3.158,3.158,0,0,0,.078-6.316,3.92,3.92,0,0,0-7.755,0,3.158,3.158,0,0,0,.078,6.316Zm0-5.165h.454a.574.574,0,0,0,.574-.574,2.771,2.771,0,0,1,5.542,0,.574.574,0,0,0,.574.574h.455a2.01,2.01,0,1,1,0,4.02h-7.6a2.01,2.01,0,1,1,0-4.02Zm38.36,5.168h7.6a3.155,3.155,0,0,0,2.007-5.592,3.919,3.919,0,0,0-7.793-.727h-1.813a3.158,3.158,0,1,0,0,6.316Zm0-5.165h2.344a.574.574,0,0,0,.574-.574,2.772,2.772,0,0,1,5.542,0c0,.3-.138.661.23.9a2.008,2.008,0,0,1-1.091,3.693h-7.6a2.01,2.01,0,0,1,0-4.02Z" transform="translate(-636.531 5090.604)" fill="#e1a497"/>
    </g>
  </g>
</svg>
