<svg xmlns="http://www.w3.org/2000/svg" width="114" height="114" viewBox="0 0 114 114">
  <g id="Group_2463" data-name="Group 2463" transform="translate(-1215 -5154)">
    <rect id="Rectangle_95" data-name="Rectangle 95" width="114" height="114" transform="translate(1215 5154)" fill="#fff" opacity="0"/>
    <g id="Group_2462" data-name="Group 2462" transform="translate(-1257 -508)">
      <path id="Path_2643" data-name="Path 2643" d="M46.776,142.31H91.343a4.623,4.623,0,0,1,3.484,1.251,3.231,3.231,0,0,1,.919,2.173v39.137H7.688v-.978h36.2V145.734a3.3,3.3,0,0,1,1.075-2.5,3.833,3.833,0,0,1,1.764-.915Zm-1.908,41.583h45.5V167.259h-45.5Zm0-17.611h45.5V145.734a2.259,2.259,0,0,0-.646-1.5,3.664,3.664,0,0,0-2.778-.95H46.876a2.883,2.883,0,0,0-1.249.666,2.32,2.32,0,0,0-.759,1.78ZM90.13,143.288a3.517,3.517,0,0,1,.294.273,3.233,3.233,0,0,1,.919,2.173v38.158h3.425V145.734a2.261,2.261,0,0,0-.646-1.5,3.665,3.665,0,0,0-2.778-.95ZM63.947,169.217H61.012v-.979h2.935Zm8.316,0H67.371v-.979h4.892Zm16.633,0H75.689v-.979H88.9Z" transform="translate(2478.254 5555.69)" fill="#e1a497" fill-rule="evenodd"/>
      <path id="Path_2644" data-name="Path 2644" d="M321.983,363.28l14.454,14.454H311.81Zm.131,1.514L313.7,376.757h7.141l5.934-7.3Zm5.354,5.354-3.754,4.62,1.964,1.988h8.4Zm-3.165,6.609-1.209-1.225-1,1.225Z" transform="translate(2212.814 5362.826)" fill="#e1a497" fill-rule="evenodd"/>
      <path id="Path_2645" data-name="Path 2645" d="M164.293,363.28l14.454,14.454H154.12Zm.131,1.514-8.418,11.962h7.141l5.934-7.3Zm5.354,5.354-3.754,4.62,1.964,1.988h8.4Zm-3.165,6.609-1.209-1.225-1,1.225Z" transform="translate(2350.447 5362.826)" fill="#e1a497" fill-rule="evenodd"/>
      <path id="Path_2646" data-name="Path 2646" d="M10.456,363.28l14.456,14.454H.284Zm.131,1.514L2.169,376.757H9.31l5.935-7.3Zm5.354,5.354-3.754,4.62,1.964,1.988h8.4Zm-3.165,6.609-1.209-1.225-1,1.225Z" transform="translate(2484.716 5362.826)" fill="#e1a497" fill-rule="evenodd"/>
      <path id="Path_2647" data-name="Path 2647" d="M344.531,375.169c-8.61,1.957-9.784-5.871-9.295-9.785h-8.317c.489,5.708,4.7,16.047,17.611,9.785Z" transform="translate(2199.627 5360.99)" fill="none"/>
      <path id="Path_2648" data-name="Path 2648" d="M322.73,361.54h9.4l-.069.55a11.377,11.377,0,0,0,1.17,6.783,5.368,5.368,0,0,0,2.666,2.333,8.175,8.175,0,0,0,4.865.131l.322.917a16.4,16.4,0,0,1-8.384,1.963,9.2,9.2,0,0,1-5.627-2.447c-2.853-2.631-4.052-6.783-4.3-9.7Zm1.075.978c.332,2.735,1.5,6.281,3.935,8.532a8.219,8.219,0,0,0,5.042,2.191,12.806,12.806,0,0,0,4.872-.655,7.193,7.193,0,0,1-2.113-.471,6.349,6.349,0,0,1-3.147-2.743,12.125,12.125,0,0,1-1.356-6.855Z" transform="translate(2203.283 5364.345)" fill="#e1a497" fill-rule="evenodd"/>
      <path id="Path_2649" data-name="Path 2649" d="M186.841,375.169c-8.61,1.957-9.784-5.871-9.295-9.785h-8.317c.489,5.708,4.7,16.047,17.611,9.785Z" transform="translate(2337.26 5360.99)" fill="none"/>
      <path id="Path_2650" data-name="Path 2650" d="M165.04,361.54h9.4l-.069.55a11.377,11.377,0,0,0,1.17,6.783,5.366,5.366,0,0,0,2.666,2.333,8.175,8.175,0,0,0,4.865.131l.322.917a16.4,16.4,0,0,1-8.384,1.963,9.2,9.2,0,0,1-5.626-2.447c-2.853-2.631-4.052-6.783-4.3-9.7Zm1.076.978c.332,2.735,1.495,6.281,3.935,8.532a8.219,8.219,0,0,0,5.042,2.191,12.807,12.807,0,0,0,4.872-.655,7.189,7.189,0,0,1-2.113-.471,6.351,6.351,0,0,1-3.147-2.743,12.125,12.125,0,0,1-1.356-6.855Z" transform="translate(2340.916 5364.345)" fill="#e1a497" fill-rule="evenodd"/>
      <path id="Path_2651" data-name="Path 2651" d="M33,375.169c-8.61,1.957-9.785-5.871-9.3-9.785H15.385c.489,5.708,4.7,16.047,17.611,9.785Z" transform="translate(2471.536 5360.99)" fill="none"/>
      <path id="Path_2652" data-name="Path 2652" d="M11.195,361.54h9.4l-.069.55a11.377,11.377,0,0,0,1.17,6.783,5.369,5.369,0,0,0,2.666,2.333,8.173,8.173,0,0,0,4.865.131l.322.917a16.4,16.4,0,0,1-8.384,1.963,9.194,9.194,0,0,1-5.626-2.447c-2.853-2.631-4.052-6.783-4.3-9.7Zm1.075.978c.332,2.735,1.5,6.281,3.936,8.532a8.216,8.216,0,0,0,5.041,2.191,12.806,12.806,0,0,0,4.872-.655,7.193,7.193,0,0,1-2.113-.471,6.349,6.349,0,0,1-3.147-2.743,12.12,12.12,0,0,1-1.356-6.855Z" transform="translate(2475.193 5364.345)" fill="#e1a497" fill-rule="evenodd"/>
    </g>
  </g>
</svg>
