<svg xmlns="http://www.w3.org/2000/svg" width="114" height="114" viewBox="0 0 114 114">
  <g id="Group_2467" data-name="Group 2467" transform="translate(-918 -5334)">
    <rect id="Rectangle_94" data-name="Rectangle 94" width="114" height="114" transform="translate(918 5334)" fill="#fff" opacity="0"/>
    <g id="Group_2415" data-name="Group 2415" transform="translate(-1350.902 19.024)">
      <path id="Path_2641" data-name="Path 2641" d="M391.55,101.88a3.952,3.952,0,0,0-3.879,3.221H381.09a3.946,3.946,0,0,0-7.824.725,3.9,3.9,0,0,0,.963,2.58,3.9,3.9,0,0,0-.963,2.58,3.944,3.944,0,0,0,7.826.7h6.575a3.946,3.946,0,0,0,7.828-.7,3.9,3.9,0,0,0-.963-2.58,3.9,3.9,0,0,0,.963-2.58,3.95,3.95,0,0,0-3.946-3.946Zm1.488,7.106a2.494,2.494,0,1,1-3.983,2v-.023a.725.725,0,0,0-.725-.725h-7.9a.744.744,0,0,0-.725.747,2.5,2.5,0,1,1-3.983-2,.725.725,0,0,0,0-1.162,2.494,2.494,0,1,1,3.984-2,.725.725,0,0,0,.725.725h7.9a.725.725,0,0,0,.725-.725,2.5,2.5,0,1,1,3.984,2,.724.724,0,0,0,0,1.162Z" transform="translate(1955.65 5247.034)" fill="#e1a497"/>
      <path id="Path_2642" data-name="Path 2642" d="M138,81.453v31.076H126.639a.725.725,0,1,0,0,1.45h56.53a.725.725,0,0,0,0-1.45h-3.15V99.616h3.137a.725.725,0,0,0,.725-.725v-14.1a.725.725,0,0,0-.725-.725h-3.137V80.925h3.137a.725.725,0,0,0,.725-.725V56.724a.725.725,0,0,0-.725-.725H154.179a.725.725,0,0,0-.725.725V80.2a.725.725,0,0,0,.725.725h3.137v3.137h-3.137a.725.725,0,0,0-.725.725v14.1a.725.725,0,0,0,.725.725h3.137v12.913h-17.87V81.453a12.821,12.821,0,1,0-1.449,0Zm16.907-24h27.527V79.477H154.9Zm3.862,23.478h19.8v3.137h-19.8ZM154.9,85.513h27.527V98.167H154.9Zm3.862,14.1h19.8V112.53h-19.8ZM138.721,57.449A11.287,11.287,0,0,1,139.448,80v-4.5l3.932-3.894a.725.725,0,1,0-1.021-1.031l-2.912,2.884V68.849a.725.725,0,1,0-1.45,0v4.62l-2.913-2.884a.725.725,0,0,0-1.019,1.03L138,75.508V80a11.287,11.287,0,0,1,.724-22.555Z" transform="translate(2171 5286.977)" fill="#e1a497"/>
    </g>
  </g>
</svg>
