<?xml version="1.0" encoding="iso-8859-1"?>
<!-- Generator: Adobe Illustrator 19.0.0, SVG Export Plug-In . SVG Version: 6.00 Build 0)  -->
<svg version="1.1" id="Capa_1" xmlns="http://www.w3.org/2000/svg" xmlns:xlink="http://www.w3.org/1999/xlink" x="0px" y="0px"
	 viewBox="0 0 511.594 511.594" style="enable-background:new 0 0 511.594 511.594;" xml:space="preserve">
<rect x="235.817" y="203.837" style="fill:#CCD1D9;" width="15.987" height="247.8"/>
<g style="opacity:0.5;">
	<rect x="235.817" y="203.837" style="fill:#FFFFFF;" width="7.994" height="247.8"/>
</g>
<path style="fill:#ED5565;" d="M243.807,19.977c-101.622,0-183.854,78.656-183.854,175.86c47.962-7.994,79.937,23.981,79.937,23.981
	s39.969-15.987,103.918-15.987s103.918,15.987,103.918,15.987s31.975-31.975,79.936-23.981
	C427.66,98.633,345.428,19.977,243.807,19.977z"/>
<g style="opacity:0.3;">
	<path style="fill:#FFFFFF;" d="M255.797,20.391c-3.974-0.246-7.962-0.414-11.99-0.414c-101.622,0-183.854,78.656-183.854,175.86
		c8.548-1.425,16.558-1.538,24.005-0.831C84.402,102.04,160.068,26.276,255.797,20.391z"/>
</g>
<g style="opacity:0.2;">
	<path d="M231.817,20.391c3.966-0.246,7.954-0.414,11.99-0.414c101.621,0,183.854,78.656,183.854,175.86
		c-8.547-1.425-16.564-1.538-24.004-0.831C403.203,102.04,327.545,26.276,231.817,20.391z"/>
</g>
<g>
	<rect x="75.937" y="387.697" style="fill:#FFD2A6;" width="359.71" height="15.987"/>
	<rect x="99.917" y="403.677" style="fill:#FFD2A6;" width="23.98" height="47.962"/>
	<rect x="387.687" y="403.677" style="fill:#FFD2A6;" width="23.982" height="47.962"/>
</g>
<rect x="3.997" y="451.647" style="fill:#FFCE54;" width="503.6" height="39.969"/>
<path style="fill:#E6E9ED;" d="M243.807,19.996C130.959,83.91,139.951,219.802,139.951,219.802s39.946-15.975,103.856-15.987
	c63.91,0.012,103.855,15.987,103.855,15.987S356.654,83.91,243.807,19.996z"/>
<g style="opacity:0.2;">
	<rect x="99.917" y="403.677" width="23.98" height="7.994"/>
</g>
<g style="opacity:0.2;">
	<rect x="387.687" y="403.677" width="23.982" height="7.994"/>
</g>
<g style="opacity:0.2;">
	<rect x="3.997" y="483.617" width="503.6" height="7.994"/>
</g>
<g style="opacity:0.3;">
	<rect x="3.997" y="451.647" style="fill:#FFFFFF;" width="503.6" height="7.994"/>
</g>
<g style="opacity:0.5;">
	<rect x="75.937" y="387.697" style="fill:#FFFFFF;" width="359.71" height="7.994"/>
</g>
<g style="opacity:0.5;">
	<rect x="75.937" y="395.687" style="fill:#FFFFFF;" width="7.994" height="7.993"/>
</g>
<g style="opacity:0.2;">
	<rect x="427.657" y="395.687" width="7.994" height="7.993"/>
</g>
<g style="opacity:0.5;">
	<rect x="99.917" y="411.677" style="fill:#FFFFFF;" width="7.993" height="39.968"/>
</g>
<g style="opacity:0.2;">
	<rect x="115.907" y="411.677" width="7.993" height="39.968"/>
</g>
<g style="opacity:0.5;">
	<rect x="387.687" y="411.677" style="fill:#FFFFFF;" width="7.994" height="39.968"/>
</g>
<g style="opacity:0.2;">
	<rect x="403.677" y="411.677" width="7.994" height="39.968"/>
</g>
<g>
	<path style="fill:#3A3847;" d="M28.22,471.626c-2.209,0-4.036-1.787-4.036-3.997c0-2.209,1.749-3.997,3.958-3.997h0.078
		c2.209,0,3.997,1.788,3.997,3.997C32.217,469.839,30.429,471.626,28.22,471.626z"/>
	<path style="fill:#3A3847;" d="M60.194,471.626c-2.209,0-4.036-1.787-4.036-3.997c0-2.209,1.749-3.997,3.958-3.997h0.078
		c2.209,0,3.997,1.788,3.997,3.997C64.192,469.839,62.403,471.626,60.194,471.626z"/>
	<path style="fill:#3A3847;" d="M92.169,471.626c-2.209,0-4.035-1.787-4.035-3.997c0-2.209,1.748-3.997,3.957-3.997h0.078
		c2.209,0,3.997,1.788,3.997,3.997C96.166,469.839,94.378,471.626,92.169,471.626z"/>
	<path style="fill:#3A3847;" d="M124.144,471.626c-2.209,0-4.035-1.787-4.035-3.997c0-2.209,1.748-3.997,3.957-3.997h0.078
		c2.209,0,3.997,1.788,3.997,3.997C128.141,469.839,126.353,471.626,124.144,471.626z"/>
	<path style="fill:#3A3847;" d="M156.118,471.626c-2.209,0-4.035-1.787-4.035-3.997c0-2.209,1.748-3.997,3.957-3.997h0.078
		c2.209,0,3.997,1.788,3.997,3.997C160.115,469.839,158.327,471.626,156.118,471.626z"/>
	<path style="fill:#3A3847;" d="M188.093,471.626c-2.209,0-4.035-1.787-4.035-3.997c0-2.209,1.748-3.997,3.957-3.997h0.078
		c2.209,0,3.997,1.788,3.997,3.997C192.09,469.839,190.302,471.626,188.093,471.626z"/>
	<path style="fill:#3A3847;" d="M220.06,471.626c-2.201,0-4.035-1.787-4.035-3.997c0-2.209,1.748-3.997,3.957-3.997h0.078
		c2.209,0,3.997,1.788,3.997,3.997C224.057,469.839,222.269,471.626,220.06,471.626z"/>
	<path style="fill:#3A3847;" d="M252.042,471.626c-2.209,0-4.035-1.787-4.035-3.997c0-2.209,1.748-3.997,3.957-3.997h0.078
		c2.209,0,3.997,1.788,3.997,3.997C256.039,469.839,254.251,471.626,252.042,471.626z"/>
	<path style="fill:#3A3847;" d="M284.008,471.626c-2.201,0-4.035-1.787-4.035-3.997c0-2.209,1.748-3.997,3.957-3.997h0.078
		c2.211,0,3.998,1.788,3.998,3.997C288.006,469.839,286.219,471.626,284.008,471.626z"/>
	<path style="fill:#3A3847;" d="M315.983,471.626c-2.201,0-4.035-1.787-4.035-3.997c0-2.209,1.748-3.997,3.957-3.997h0.078
		c2.211,0,3.998,1.788,3.998,3.997C319.981,469.839,318.193,471.626,315.983,471.626z"/>
	<path style="fill:#3A3847;" d="M347.957,471.626c-2.201,0-4.035-1.787-4.035-3.997c0-2.209,1.748-3.997,3.957-3.997h0.078
		c2.211,0,3.998,1.788,3.998,3.997C351.955,469.839,350.168,471.626,347.957,471.626z"/>
	<path style="fill:#3A3847;" d="M379.932,471.626c-2.201,0-4.035-1.787-4.035-3.997c0-2.209,1.748-3.997,3.957-3.997h0.078
		c2.211,0,3.998,1.788,3.998,3.997C383.93,469.839,382.143,471.626,379.932,471.626z"/>
	<path style="fill:#3A3847;" d="M411.906,471.626c-2.201,0-4.035-1.787-4.035-3.997c0-2.209,1.748-3.997,3.957-3.997h0.078
		c2.211,0,3.998,1.788,3.998,3.997C415.904,469.839,414.117,471.626,411.906,471.626z"/>
	<path style="fill:#3A3847;" d="M443.881,471.626c-2.201,0-4.035-1.787-4.035-3.997c0-2.209,1.748-3.997,3.957-3.997h0.078
		c2.211,0,3.998,1.788,3.998,3.997C447.879,469.839,446.092,471.626,443.881,471.626z"/>
	<path style="fill:#3A3847;" d="M475.856,471.626c-2.201,0-4.035-1.787-4.035-3.997c0-2.209,1.748-3.997,3.957-3.997h0.078
		c2.211,0,3.998,1.788,3.998,3.997C479.854,469.839,478.067,471.626,475.856,471.626z"/>
	<path style="fill:#3A3847;" d="M44.207,479.62c-2.209,0-4.036-1.788-4.036-3.997c0-2.21,1.749-3.997,3.958-3.997h0.078
		c2.209,0,3.997,1.787,3.997,3.997C48.204,477.832,46.416,479.62,44.207,479.62z"/>
	<path style="fill:#3A3847;" d="M12.233,479.62c-2.209,0-4.036-1.788-4.036-3.997c0-2.21,1.749-3.997,3.958-3.997h0.078
		c2.209,0,3.997,1.787,3.997,3.997C16.23,477.832,14.442,479.62,12.233,479.62z"/>
	<path style="fill:#3A3847;" d="M76.182,479.62c-2.209,0-4.036-1.788-4.036-3.997c0-2.21,1.749-3.997,3.958-3.997h0.078
		c2.209,0,3.997,1.787,3.997,3.997C80.179,477.832,78.391,479.62,76.182,479.62z"/>
	<path style="fill:#3A3847;" d="M108.156,479.62c-2.209,0-4.035-1.788-4.035-3.997c0-2.21,1.748-3.997,3.957-3.997h0.078
		c2.209,0,3.997,1.787,3.997,3.997C112.153,477.832,110.365,479.62,108.156,479.62z"/>
	<path style="fill:#3A3847;" d="M140.131,479.62c-2.209,0-4.035-1.788-4.035-3.997c0-2.21,1.748-3.997,3.957-3.997h0.078
		c2.209,0,3.997,1.787,3.997,3.997C144.128,477.832,142.34,479.62,140.131,479.62z"/>
	<path style="fill:#3A3847;" d="M172.106,479.62c-2.209,0-4.035-1.788-4.035-3.997c0-2.21,1.748-3.997,3.957-3.997h0.078
		c2.209,0,3.997,1.787,3.997,3.997C176.103,477.832,174.315,479.62,172.106,479.62z"/>
	<path style="fill:#3A3847;" d="M204.08,479.62c-2.209,0-4.035-1.788-4.035-3.997c0-2.21,1.748-3.997,3.957-3.997h0.078
		c2.209,0,3.997,1.787,3.997,3.997C208.077,477.832,206.289,479.62,204.08,479.62z"/>
	<path style="fill:#3A3847;" d="M236.055,479.62c-2.209,0-4.035-1.788-4.035-3.997c0-2.21,1.748-3.997,3.957-3.997h0.078
		c2.209,0,3.997,1.787,3.997,3.997C240.052,477.832,238.264,479.62,236.055,479.62z"/>
	<path style="fill:#3A3847;" d="M268.022,479.62c-2.201,0-4.035-1.788-4.035-3.997c0-2.21,1.748-3.997,3.957-3.997h0.078
		c2.209,0,3.996,1.787,3.996,3.997C272.018,477.832,270.231,479.62,268.022,479.62z"/>
	<path style="fill:#3A3847;" d="M299.996,479.62c-2.201,0-4.035-1.788-4.035-3.997c0-2.21,1.748-3.997,3.957-3.997h0.078
		c2.209,0,3.996,1.787,3.996,3.997C303.992,477.832,302.205,479.62,299.996,479.62z"/>
	<path style="fill:#3A3847;" d="M331.971,479.62c-2.201,0-4.035-1.788-4.035-3.997c0-2.21,1.748-3.997,3.957-3.997h0.078
		c2.209,0,3.996,1.787,3.996,3.997C335.967,477.832,334.18,479.62,331.971,479.62z"/>
	<path style="fill:#3A3847;" d="M363.945,479.62c-2.201,0-4.035-1.788-4.035-3.997c0-2.21,1.748-3.997,3.957-3.997h0.078
		c2.209,0,3.996,1.787,3.996,3.997C367.942,477.832,366.154,479.62,363.945,479.62z"/>
	<path style="fill:#3A3847;" d="M395.92,479.62c-2.201,0-4.035-1.788-4.035-3.997c0-2.21,1.748-3.997,3.957-3.997h0.078
		c2.209,0,3.996,1.787,3.996,3.997C399.916,477.832,398.129,479.62,395.92,479.62z"/>
	<path style="fill:#3A3847;" d="M427.895,479.62c-2.201,0-4.035-1.788-4.035-3.997c0-2.21,1.748-3.997,3.957-3.997h0.078
		c2.209,0,3.996,1.787,3.996,3.997C431.891,477.832,430.104,479.62,427.895,479.62z"/>
	<path style="fill:#3A3847;" d="M459.869,479.62c-2.201,0-4.035-1.788-4.035-3.997c0-2.21,1.748-3.997,3.957-3.997h0.078
		c2.209,0,3.996,1.787,3.996,3.997C463.865,477.832,462.078,479.62,459.869,479.62z"/>
	<path style="fill:#3A3847;" d="M491.844,479.62c-2.201,0-4.035-1.788-4.035-3.997c0-2.21,1.748-3.997,3.957-3.997h0.078
		c2.209,0,3.996,1.787,3.996,3.997C495.84,477.832,494.053,479.62,491.844,479.62z"/>
	<path style="fill:#3A3847;" d="M507.598,495.607H3.997c-2.209,0-3.997-1.787-3.997-3.996s1.788-3.997,3.997-3.997h503.601
		c2.209,0,3.996,1.788,3.996,3.997S509.807,495.607,507.598,495.607z"/>
	<path style="fill:#3A3847;" d="M507.598,455.639H3.997c-2.209,0-3.997-1.788-3.997-3.997s1.788-3.996,3.997-3.996h503.601
		c2.209,0,3.996,1.787,3.996,3.996S509.807,455.639,507.598,455.639z"/>
	<path style="fill:#3A3847;" d="M99.921,455.639c-2.209,0-3.997-1.788-3.997-3.997v-39.968c0-2.21,1.788-3.997,3.997-3.997
		s3.997,1.787,3.997,3.997v39.968C103.918,453.85,102.13,455.639,99.921,455.639z"/>
	<path style="fill:#3A3847;" d="M123.901,455.639c-2.209,0-3.996-1.788-3.996-3.997v-39.968c0-2.21,1.787-3.997,3.996-3.997
		c2.21,0,3.997,1.787,3.997,3.997v39.968C127.899,453.85,126.111,455.639,123.901,455.639z"/>
	<path style="fill:#3A3847;" d="M387.692,447.646c-2.209,0-3.996-1.788-3.996-3.997v-31.975c0-2.21,1.787-3.997,3.996-3.997
		s3.998,1.787,3.998,3.997v31.975C391.69,445.858,389.901,447.646,387.692,447.646z"/>
	<path style="fill:#3A3847;" d="M411.674,447.646c-2.211,0-3.998-1.788-3.998-3.997v-31.975c0-2.21,1.787-3.997,3.998-3.997
		c2.209,0,3.996,1.787,3.996,3.997v31.975C415.67,445.858,413.883,447.646,411.674,447.646z"/>
	<path style="fill:#3A3847;" d="M435.654,407.677H75.94c-2.209,0-3.996-1.787-3.996-3.997v-15.987c0-2.209,1.787-3.996,3.996-3.996
		h359.715c2.209,0,3.996,1.787,3.996,3.996v15.987C439.651,405.889,437.863,407.677,435.654,407.677z M79.937,399.682h351.72v-7.993
		H79.937V399.682z"/>
	<path style="fill:#3A3847;" d="M107.914,375.702h-23.98c-2.209,0-3.997-1.788-3.997-3.997s1.788-3.997,3.997-3.997h23.98
		c2.21,0,3.997,1.788,3.997,3.997S110.124,375.702,107.914,375.702z"/>
	<path style="fill:#3A3847;" d="M147.883,375.702h-23.981c-2.209,0-3.996-1.788-3.996-3.997s1.787-3.997,3.996-3.997h23.981
		c2.209,0,3.997,1.788,3.997,3.997S150.092,375.702,147.883,375.702z"/>
	<path style="fill:#3A3847;" d="M187.851,375.702h-23.98c-2.209,0-3.997-1.788-3.997-3.997s1.788-3.997,3.997-3.997h23.98
		c2.21,0,3.997,1.788,3.997,3.997S190.061,375.702,187.851,375.702z"/>
	<path style="fill:#3A3847;" d="M227.819,375.702h-23.981c-2.209,0-3.996-1.788-3.996-3.997s1.787-3.997,3.996-3.997h23.981
		c2.209,0,3.997,1.788,3.997,3.997S230.028,375.702,227.819,375.702z"/>
	<path style="fill:#3A3847;" d="M267.787,375.702h-23.98c-2.209,0-3.997-1.788-3.997-3.997s1.788-3.997,3.997-3.997h23.98
		c2.209,0,3.996,1.788,3.996,3.997S269.996,375.702,267.787,375.702z"/>
	<path style="fill:#3A3847;" d="M307.756,375.702h-23.98c-2.211,0-3.998-1.788-3.998-3.997s1.787-3.997,3.998-3.997h23.98
		c2.209,0,3.996,1.788,3.996,3.997S309.965,375.702,307.756,375.702z"/>
	<path style="fill:#3A3847;" d="M323.742,375.702c-1.381,0-2.725-0.719-3.465-1.998c-1.102-1.913-0.445-4.356,1.467-5.457
		l20.773-11.99c1.896-1.116,4.348-0.453,5.455,1.459c1.109,1.913,0.453,4.356-1.459,5.457l-20.773,11.99
		C325.11,375.53,324.422,375.702,323.742,375.702z"/>
	<path style="fill:#3A3847;" d="M358.356,355.717c-1.381,0-2.725-0.718-3.465-1.998c-1.102-1.913-0.445-4.356,1.467-5.457
		l20.773-11.99c1.904-1.116,4.348-0.453,5.455,1.46c1.109,1.912,0.453,4.355-1.459,5.456l-20.773,11.99
		C359.723,355.546,359.035,355.717,358.356,355.717z"/>
	<path style="fill:#3A3847;" d="M392.969,335.734c-1.381,0-2.725-0.718-3.465-1.998c-1.102-1.912-0.445-4.355,1.467-5.457
		l20.773-11.99c1.896-1.124,4.355-0.453,5.455,1.46c1.109,1.913,0.453,4.356-1.459,5.456l-20.773,11.991
		C394.336,335.562,393.649,335.734,392.969,335.734z"/>
	<path style="fill:#3A3847;" d="M411.674,391.69c-1.008,0-2.023-0.383-2.795-1.14l-32.545-31.818
		c-1.576-1.546-1.607-4.075-0.063-5.652c1.537-1.584,4.074-1.6,5.652-0.063l32.543,31.818c1.578,1.546,1.609,4.075,0.063,5.652
		C413.75,391.29,412.711,391.69,411.674,391.69z"/>
	<path style="fill:#3A3847;" d="M235.813,447.646c-2.209,0-3.996-1.788-3.996-3.997v-31.975c0-2.21,1.787-3.997,3.996-3.997
		c2.21,0,3.997,1.787,3.997,3.997v31.975C239.81,445.858,238.023,447.646,235.813,447.646z"/>
	<path style="fill:#3A3847;" d="M251.8,447.646c-2.209,0-3.996-1.788-3.996-3.997v-31.975c0-2.21,1.787-3.997,3.996-3.997
		c2.21,0,3.997,1.787,3.997,3.997v31.975C255.797,445.858,254.01,447.646,251.8,447.646z"/>
	<path style="fill:#3A3847;" d="M235.813,359.715c-2.209,0-3.996-1.788-3.996-3.997V211.832c0-2.209,1.787-3.997,3.996-3.997
		c2.21,0,3.997,1.788,3.997,3.997v143.886C239.81,357.927,238.023,359.715,235.813,359.715z"/>
	<path style="fill:#3A3847;" d="M251.8,359.715c-2.209,0-3.996-1.788-3.996-3.997V211.832c0-2.209,1.787-3.997,3.996-3.997
		c2.21,0,3.997,1.788,3.997,3.997v143.886C255.797,357.927,254.01,359.715,251.8,359.715z"/>
	<path style="fill:#3A3847;" d="M347.717,223.822c-0.492,0-0.992-0.089-1.477-0.285c-0.398-0.156-40.117-15.703-102.434-15.703
		c-62.325,0-102.044,15.547-102.435,15.703c-2.068,0.824-4.379-0.183-5.199-2.229c-0.812-2.049,0.18-4.375,2.233-5.195
		c1.654-0.664,41.412-16.272,105.4-16.272c63.98,0,103.738,15.608,105.4,16.272c2.045,0.82,3.045,3.146,2.225,5.195
		C350.807,222.87,349.309,223.822,347.717,223.822z"/>
	<path style="fill:#3A3847;" d="M347.725,223.822c-1.023,0-2.047-0.39-2.826-1.171c-1.563-1.561-1.563-4.09,0-5.651
		c1.357-1.366,33.98-33.341,83.418-25.098c2.178,0.363,3.645,2.42,3.285,4.598c-0.365,2.178-2.436,3.653-4.598,3.287
		c-45.463-7.561-76.15,22.56-76.455,22.864C349.77,223.433,348.746,223.822,347.725,223.822z"/>
	<path style="fill:#3A3847;" d="M139.889,223.818c-1.022,0-2.045-0.386-2.825-1.163c-0.305-0.304-31.163-30.409-76.455-22.868
		c-2.162,0.371-4.239-1.108-4.598-3.287c-0.367-2.178,1.108-4.235,3.286-4.598c49.367-8.22,82.044,23.731,83.418,25.098
		c1.562,1.558,1.562,4.083,0,5.647C141.935,223.429,140.912,223.818,139.889,223.818z"/>
	<path style="fill:#3A3847;" d="M59.952,199.842c-2.209,0-3.996-1.788-3.996-3.997c0-99.175,84.269-179.857,187.851-179.857
		c2.209,0,3.997,1.788,3.997,3.997s-1.788,3.997-3.997,3.997c-99.179,0-179.857,77.099-179.857,171.863
		C63.949,198.054,62.162,199.842,59.952,199.842z"/>
	<path style="fill:#3A3847;" d="M427.66,199.842c-2.209,0-3.996-1.788-3.996-3.997c0-94.765-80.688-171.863-179.857-171.863
		c-2.209,0-3.997-1.788-3.997-3.997s1.788-3.997,3.997-3.997c103.582,0,187.85,80.683,187.85,179.857
		C431.656,198.054,429.869,199.842,427.66,199.842z"/>
	<path style="fill:#3A3847;" d="M347.725,207.835c-2.211,0-3.998-1.787-3.998-3.997c0-80.702-49.203-157.406-93.19-172.07
		c-2.093-0.695-3.225-2.958-2.529-5.055c0.702-2.092,2.935-3.22,5.058-2.525c52.553,17.517,98.656,101.466,98.656,179.65
		C351.721,206.048,349.934,207.835,347.725,207.835z"/>
	<path style="fill:#3A3847;" d="M139.889,207.835c-2.209,0-3.996-1.787-3.996-3.997c0-78.184,46.096-162.133,98.656-179.65
		c2.1-0.695,4.355,0.433,5.05,2.525c0.703,2.096-0.429,4.36-2.521,5.055c-43.996,14.664-93.191,91.369-93.191,172.07
		C143.886,206.048,142.099,207.835,139.889,207.835z"/>
</g>
<g>
</g>
<g>
</g>
<g>
</g>
<g>
</g>
<g>
</g>
<g>
</g>
<g>
</g>
<g>
</g>
<g>
</g>
<g>
</g>
<g>
</g>
<g>
</g>
<g>
</g>
<g>
</g>
<g>
</g>
</svg>
