<?xml version="1.0" encoding="iso-8859-1"?>
<!-- Generator: Adobe Illustrator 19.0.0, SVG Export Plug-In . SVG Version: 6.00 Build 0)  -->
<svg version="1.1" id="Capa_1" xmlns="http://www.w3.org/2000/svg" xmlns:xlink="http://www.w3.org/1999/xlink" x="0px" y="0px"
	 viewBox="0 0 512 512" style="enable-background:new 0 0 512 512;" xml:space="preserve">
<path style="fill:#F9EED7;" d="M512,256c0,1.139-0.01,2.278-0.021,3.417c-0.094,7.032-0.47,14.002-1.128,20.898
	C498.615,410.29,389.183,512,256,512S13.385,410.29,1.149,280.315c-0.658-6.896-1.034-13.866-1.128-20.898
	C0.01,258.278,0,257.139,0,256C0,114.615,114.615,0,256,0S512,114.615,512,256z"/>
<path style="fill:#4BC999;" d="M510.851,280.315C498.615,410.29,389.183,512,256,512S13.385,410.29,1.149,280.315H510.851z"/>
<g>
	<path style="fill:#5BD3A2;" d="M126.861,378.566c0,7.367-5.966,13.333-13.322,13.333h-3.709c-3.678,0-7.011,1.494-9.415,3.897
		c-2.414,2.414-3.908,5.747-3.908,9.425c0,7.356-5.966,13.322-13.322,13.322H58.211c-2.403-2.926-4.744-5.904-7.022-8.934
		c-16.029-21.337-28.797-45.244-37.564-71.011h41.618c7.356,0,13.322,5.966,13.322,13.322c0,7.367,5.966,13.322,13.322,13.322h31.65
		c3.678,0,7.011,1.494,9.425,3.908C125.367,371.555,126.861,374.888,126.861,378.566z"/>
	<path style="fill:#5BD3A2;" d="M339.927,293.468L339.927,293.468c0-7.358,5.965-13.323,13.324-13.323h42.934
		c7.358,0,13.324-5.965,13.324-13.323l0,0c0-7.358-5.965-13.324-13.324-13.324h-126.57c-7.358,0-13.324,5.965-13.324,13.324l0,0
		c0,7.358-5.965,13.323-13.324,13.323h-42.933c-7.358,0-13.324,5.965-13.324,13.323l0,0c0,7.358,5.965,13.324,13.324,13.324h63.659
		c7.358,0,13.323,5.965,13.323,13.323l0,0c0,7.358,5.965,13.324,13.324,13.324H416.91c7.358,0,13.323-5.965,13.323-13.324l0,0
		c0-7.358-5.965-13.323-13.323-13.323h-63.659C345.893,306.79,339.927,300.826,339.927,293.468z"/>
	<path style="fill:#5BD3A2;" d="M482.711,375.003c-6.374,12.142-13.72,23.709-21.901,34.607
		c-6.113,8.14-12.706,15.914-19.738,23.259c-12.79,13.385-27.021,25.381-42.444,35.756c-3.762,2.529-7.596,4.953-11.494,7.283
		c-4.106,2.456-8.286,4.796-12.539,7.022c-3.427,1.797-6.896,3.511-10.407,5.151h-85.42c-3.678,0-7.011-1.494-9.415-3.908
		c-2.414-2.403-3.908-5.736-3.908-9.415c0-7.356,5.966-13.322,13.322-13.322h40.5c3.678,0,7.011-1.494,9.415-3.908
		c2.414-2.403,3.908-5.736,3.908-9.415c0-7.356-5.966-13.322-13.322-13.322h-11.306c-3.678,0-7.011-1.494-9.415-3.908
		c-2.414-2.403-3.908-5.736-3.908-9.415c0-7.356,5.966-13.322,13.322-13.322h37.418c3.678,0,7.022-1.494,9.425-3.908
		c2.414-2.403,3.908-5.736,3.908-9.415c0-7.356-5.966-13.322-13.333-13.322h-82.15c-3.678,0-7.011-1.494-9.425-3.908
		c-2.403-2.403-3.897-5.736-3.897-9.415c0-7.356,5.956-13.322,13.322-13.322h204.288c3.678,0,7.011,1.494,9.415,3.908
		c2.414,2.403,3.908,5.736,3.908,9.415C480.841,370.678,481.52,373.008,482.711,375.003z"/>
	<path style="fill:#5BD3A2;" d="M248.571,480.632c0,7.356-5.966,13.322-13.322,13.322h-73.853
		c-8.213-3.271-16.217-6.949-23.991-11.024c-3.887-2.038-7.722-4.169-11.494-6.405c-4.263-2.508-8.443-5.151-12.539-7.899
		c-12.225-8.223-23.709-17.471-34.314-27.638c0.961-0.219,1.954-0.334,2.978-0.334h126.568c7.356,0,13.322,5.966,13.322,13.322v0.01
		c0,3.678,1.494,7.011,3.897,9.415c2.414,2.414,5.747,3.908,9.425,3.908c3.678,0,7.011,1.484,9.425,3.897
		C247.077,473.621,248.571,476.944,248.571,480.632z"/>
</g>
<path style="fill:#C69A6A;" d="M100.682,345.621H65.156v-155.69c0-9.811,7.953-17.763,17.763-17.763l0,0
	c9.811,0,17.763,7.953,17.763,17.763V345.621z"/>
<path style="fill:#41B787;" d="M119.397,25.601H46.44C20.792,25.601,0,46.393,0,72.042v115.197c0,25.648,20.792,46.44,46.44,46.44
	h72.957c25.648,0,46.44-20.792,46.44-46.44V72.042C165.838,46.393,145.045,25.601,119.397,25.601z"/>
<path style="fill:#4BC999;" d="M114.944,196.723H69.401c-16.566,0-29.996-13.43-29.996-29.996V67.372
	c0-16.566,13.43-29.996,29.996-29.996h45.543c16.566,0,29.996,13.43,29.996,29.996v99.355
	C144.94,183.293,131.51,196.723,114.944,196.723z"/>
<g>
	<rect x="65.16" y="233.681" style="fill:#B58657;" width="18.808" height="111.94"/>
	<rect x="70.75" y="233.681" style="fill:#B58657;" width="29.93" height="15.809"/>
</g>
<path style="fill:#5BD3A2;" d="M114.828,118.356h-12.919c-3.935,0-7.124-3.19-7.124-7.124V75.325c0-3.935,3.19-7.124,7.124-7.124
	h12.918c3.935,0,7.124,3.19,7.124,7.124v35.906C121.952,115.166,118.762,118.356,114.828,118.356z"/>
<path style="fill:#C69A6A;" d="M446.844,345.621h-35.527v-155.69c0-9.811,7.953-17.763,17.763-17.763l0,0
	c9.811,0,17.763,7.953,17.763,17.763V345.621z"/>
<path style="fill:#41B787;" d="M465.559,25.601h-72.957c-25.648,0-46.44,20.792-46.44,46.44v115.197
	c0,25.648,20.792,46.44,46.44,46.44h72.957c25.648,0,46.44-20.792,46.44-46.44V72.042C512,46.393,491.208,25.601,465.559,25.601z"/>
<path style="fill:#4BC999;" d="M461.106,196.723h-45.543c-16.566,0-29.996-13.43-29.996-29.996V67.372
	c0-16.566,13.43-29.996,29.996-29.996h45.543c16.566,0,29.996,13.43,29.996,29.996v99.355
	C491.102,183.293,477.672,196.723,461.106,196.723z"/>
<g>
	<rect x="411.314" y="233.681" style="fill:#B58657;" width="18.808" height="111.94"/>
	<rect x="416.914" y="233.681" style="fill:#B58657;" width="29.93" height="15.809"/>
</g>
<path style="fill:#5BD3A2;" d="M460.99,118.356h-12.918c-3.935,0-7.124-3.19-7.124-7.124V75.325c0-3.935,3.19-7.124,7.124-7.124
	h12.918c3.935,0,7.124,3.19,7.124,7.124v35.906C468.114,115.166,464.924,118.356,460.99,118.356z"/>
<path style="fill:#C69A6A;" d="M277.011,378.535h-42.023V191.131c0-9.811,7.953-17.763,17.763-17.763h6.496
	c9.811,0,17.763,7.953,17.763,17.763V378.535z"/>
<path style="fill:#41B787;" d="M307.64,0.001H204.36c-25.648,0-46.44,20.792-46.44,46.44v153.244c0,25.648,20.792,46.44,46.44,46.44
	h103.28c25.648,0,46.44-20.792,46.44-46.44V46.442C354.08,20.793,333.288,0.001,307.64,0.001z"/>
<path style="fill:#4BC999;" d="M299.365,199.377h-68.749c-16.566,0-29.996-13.43-29.996-29.996V43.925
	c0-16.566,13.43-29.996,29.996-29.996h68.749c16.566,0,29.996,13.43,29.996,29.996v125.457
	C329.361,185.948,315.931,199.377,299.365,199.377z"/>
<g>
	<rect x="234.987" y="246.126" style="fill:#B58657;" width="22.247" height="132.409"/>
	<rect x="241.612" y="246.126" style="fill:#B58657;" width="35.402" height="18.703"/>
</g>
<path style="fill:#5BD3A2;" d="M297.027,119.4h-6.82c-7.35,0-13.308-5.958-13.308-13.308V68.97c0-7.35,5.958-13.308,13.308-13.308
	h6.82c7.35,0,13.308,5.958,13.308,13.308v37.122C310.335,113.442,304.377,119.4,297.027,119.4z"/>
<g>
	<path style="fill:#F4A14E;" d="M137.404,218.666v264.265c-3.887-2.038-7.722-4.169-11.494-6.405
		c-4.263-2.508-8.443-5.151-12.539-7.899v-249.96H137.404z"/>
	<path style="fill:#F4A14E;" d="M398.629,218.666v249.96c-3.762,2.529-7.596,4.953-11.494,7.283
		c-4.106,2.456-8.286,4.796-12.539,7.022V218.666H398.629z"/>
</g>
<g>
	<path style="fill:#E28D40;" d="M374.596,292.157V252.45c3.887,0.306,7.722,0.627,11.494,0.962
		c4.263,0.377,8.443,0.774,12.539,1.187v37.557H374.596z"/>
	<path style="fill:#E28D40;" d="M113.371,292.157V254.6c3.762-0.38,7.596-0.744,11.494-1.094c4.106-0.369,8.286-0.721,12.539-1.055
		v39.706L113.371,292.157L113.371,292.157z"/>
	<path style="fill:#E28D40;" d="M374.596,370.524v-39.706c3.887,0.306,7.722,0.626,11.494,0.962
		c4.263,0.377,8.443,0.774,12.539,1.187v37.557L374.596,370.524L374.596,370.524z"/>
	<path style="fill:#E28D40;" d="M113.371,370.524v-37.557c3.762-0.38,7.596-0.744,11.494-1.094
		c4.106-0.369,8.286-0.721,12.539-1.055v39.706H113.371z"/>
	<path style="fill:#E28D40;" d="M374.596,457.599v-39.706c3.887,0.306,7.722,0.627,11.494,0.962
		c4.263,0.377,8.443,0.774,12.539,1.187v37.557L374.596,457.599L374.596,457.599z"/>
	<path style="fill:#E28D40;" d="M113.371,457.599v-37.557c3.762-0.38,7.596-0.744,11.494-1.094
		c4.106-0.369,8.286-0.721,12.539-1.055v39.706H113.371z"/>
	<path style="fill:#E28D40;" d="M125.91,218.666v257.86c-4.263-2.508-8.443-5.151-12.539-7.899v-249.96H125.91z"/>
	<path style="fill:#E28D40;" d="M387.135,218.666v257.243c-4.106,2.456-8.286,4.796-12.539,7.022V218.666H387.135z"/>
</g>
<g>
	<path style="fill:#FFD15C;" d="M421.056,283.449H90.947c-7.235,0-13.1-5.865-13.1-13.1v-18.73c0-7.235,5.865-13.1,13.1-13.1
		h330.109c7.235,0,13.1,5.865,13.1,13.1v18.73C434.157,277.584,428.292,283.449,421.056,283.449z"/>
	<path style="fill:#FFD15C;" d="M421.056,358.16H90.947c-7.235,0-13.1-5.865-13.1-13.1v-18.73c0-7.235,5.865-13.1,13.1-13.1h330.109
		c7.235,0,13.1,5.865,13.1,13.1v18.73C434.157,352.295,428.292,358.16,421.056,358.16z"/>
</g>
<path style="fill:#EDBB4C;" d="M460.81,402.714v6.896c-6.113,8.14-12.706,15.914-19.738,23.259H70.928
	c-7.032-7.346-13.625-15.12-19.738-23.259v-6.896c0-0.585,0.042-1.16,0.115-1.714c0.846-7.356,7.105-13.061,14.681-13.061h380.04
	c7.576,0,13.834,5.705,14.681,13.061C460.769,401.554,460.81,402.129,460.81,402.714z"/>
<path style="fill:#FFD15C;" d="M460.701,401c-0.846,7.356-7.095,13.061-14.67,13.061H65.98c-7.576,0-13.834-5.705-14.681-13.061
	c0.846-7.356,7.105-13.061,14.681-13.061h380.05C453.606,387.939,459.854,393.644,460.701,401z"/>
<g>
	<path style="fill:#FFDC8D;" d="M413.785,264.641h-91.951c-5.194,0-9.404-4.21-9.404-9.404l0,0c0-5.194,4.21-9.404,9.404-9.404
		h91.951c5.194,0,9.404,4.21,9.404,9.404l0,0C423.189,260.431,418.979,264.641,413.785,264.641z"/>
	<path style="fill:#FFDC8D;" d="M413.785,339.874h-53.156c-5.194,0-9.404-4.21-9.404-9.404l0,0c0-5.194,4.21-9.404,9.404-9.404
		h53.156c5.194,0,9.404,4.21,9.404,9.404l0,0C423.189,335.664,418.979,339.874,413.785,339.874z"/>
</g>
<g>
	<path style="fill:#41B787;" d="M262.562,138.557h-42.088c-6.732,0-12.191-5.458-12.191-12.191l0,0
		c0-6.732,5.458-12.191,12.191-12.191h12.134c6.712,0,12.47-5.251,12.593-11.962c0.125-6.837-5.38-12.419-12.189-12.419h-36.571
		v24.381h-24.73c-6.732,0-12.191,5.457-12.191,12.191l0,0c0,6.732,5.458,12.191,12.191,12.191h24.73v24.381h66.525
		c6.809,0,12.313-5.582,12.189-12.419C275.032,143.808,269.273,138.557,262.562,138.557z"/>
	<path style="fill:#41B787;" d="M99.558,155.972H57.469c-6.732,0-12.191-5.458-12.191-12.191l0,0
		c0-6.732,5.458-12.191,12.191-12.191h12.134c6.712,0,12.47-5.251,12.593-11.962c0.125-6.837-5.38-12.419-12.189-12.419H33.437
		v24.381H8.707c-6.732,0,27.167,5.458,27.167,12.191l-13.236,3.832c0,6.732-20.665,8.359-13.932,8.359h24.73v24.381h66.526
		c6.809,0,12.313-5.582,12.189-12.419C112.028,161.224,106.269,155.972,99.558,155.972z"/>
	<path style="fill:#41B787;" d="M444.374,161.544h-42.088c-6.732,0-12.191-5.458-12.191-12.191l0,0
		c0-6.732,5.457-12.191,12.191-12.191h12.134c6.712,0,12.47-5.251,12.593-11.962c0.125-6.837-5.38-12.419-12.189-12.419h-36.571
		v24.381h-24.73c-6.732,0-12.191,5.458-12.191,12.191l0,0c0,6.732,5.457,12.191,12.191,12.191h24.73v24.381h66.526
		c6.809,0,12.313-5.582,12.189-12.419C456.844,166.796,451.086,161.544,444.374,161.544z"/>
</g>
<g>
</g>
<g>
</g>
<g>
</g>
<g>
</g>
<g>
</g>
<g>
</g>
<g>
</g>
<g>
</g>
<g>
</g>
<g>
</g>
<g>
</g>
<g>
</g>
<g>
</g>
<g>
</g>
<g>
</g>
</svg>
