<svg xmlns="http://www.w3.org/2000/svg" width="114" height="114" viewBox="0 0 114 114">
  <g id="Group_2468" data-name="Group 2468" transform="translate(-1638 -5334)">
    <rect id="Rectangle_97" data-name="Rectangle 97" width="114" height="114" transform="translate(1638 5334)" fill="#fff" opacity="0"/>
    <g id="Group_2354" data-name="Group 2354" transform="translate(-2889 -2214)">
      <g id="noun-park-bench-3280567" transform="translate(4539 7590.693)">
        <path id="Path_2538" data-name="Path 2538" d="M127.167,339.227h3.778V320.433c0-.625,1.052-.626,1.052,0v2.491h42.24v-2.491c0-.625,1.052-.626,1.052,0v18.795h2.871c.625,0,1.132-.1,1.132.526v6.538a1.132,1.132,0,0,1-1.132,1.132h-1.446v8.695H195.3c-.076.045,20.042-.127,20.171,0,.625,0,.626,1.052,0,1.052H127.166c-.625,0-.626-1.052,0-1.052h1.705v-8.7h-1.705a1.132,1.132,0,0,1-1.132-1.132v-6.538c0-.625.507-.525,1.133-.525ZM132,323.974v6.888h42.24v-6.888Zm42.24,7.939H132v7.313h42.24Zm-44.314,24.206h45.739v-9.1H129.923Zm-2.635-11.088h50.749v-4.753H127.288Z" transform="translate(-126.034 -319.963)" fill="#e1a497"/>
      </g>
      <g id="noun-retirement-2800450" transform="translate(4603.088 7582)">
        <path id="Path_2576" data-name="Path 2576" d="M285.371,265.913a.718.718,0,0,0-1.415-.242L280.2,287.558a.718.718,0,0,0,.587.828c.391.066.7.136.763-.255l3.816-22.219Z" transform="translate(-280.194 -244.389)" fill="#e1a497"/>
        <path id="Path_2577" data-name="Path 2577" d="M329.55,190.239a3.145,3.145,0,0,0-3.717,5.065,5.812,5.812,0,0,0,.309-.539,7.505,7.505,0,0,0,.566-1.532h0v0h0c0-.008,0-.016.007-.024a2.263,2.263,0,0,1,2.712-1.614c.021,0,.042.01.062.016a2.262,2.262,0,0,1,1.607,2.709.767.767,0,0,1-.028.1,11.832,11.832,0,0,1-1.217,3,9.381,9.381,0,0,1-1.366,1.805,26.424,26.424,0,0,1,.7,8.749,55.9,55.9,0,0,1-2,11.935l-.006.022h0l0,.006-.813,3.035a.828.828,0,1,0,1.6.428l.817-3.049,2.628-12,.7.152-.7-.154a.719.719,0,0,1,1.416.075l2.281,15.007a.828.828,0,0,0,1.59-.463h0c-.005-.02-.01-.039-.013-.059a71,71,0,0,1-.75-13.245c.063-8.126.118-15.141-6.334-19.4l.393-.6-.4.6c-.015-.01-.03-.021-.043-.031Zm-2.586-1.878a4.562,4.562,0,0,1,3.387.689l.034.021h0l.01.006h0c7.093,4.686,7.036,12.057,6.969,20.592a69.767,69.767,0,0,0,.731,12.974,2.263,2.263,0,0,1-4.373,1.167.686.686,0,0,1-.03-.123l.711-.108-.71.107-1.71-11.247-1.8,8.2c0,.021-.008.041-.014.062h0l-.822,3.069a2.263,2.263,0,0,1-4.373-1.168l.813-3.035a.548.548,0,0,1,.016-.062l.686.214-.685-.213a54.275,54.275,0,0,0,1.946-11.609,24.04,24.04,0,0,0-.748-8.586.719.719,0,0,1,.17-.813h0a7.879,7.879,0,0,0,1.437-1.8,10.392,10.392,0,0,0,1.068-2.637c0-.021.008-.042.013-.062h0a.822.822,0,0,0-.578-1l-.016,0h0a.821.821,0,0,0-1,.58l0,.016h0a8.922,8.922,0,0,1-.673,1.824,6.942,6.942,0,0,1-.866,1.325c-.011.015-.023.03-.036.045a.718.718,0,0,1-1.013.078h0c-.055-.047-.1-.087-.141-.117s-.08-.06-.136-.1a4.579,4.579,0,0,1,1.733-8.282Z" transform="translate(-316.582 -179.464)" fill="#e1a497"/>
        <path id="Path_2578" data-name="Path 2578" d="M304.468,216.615a.826.826,0,0,0-.032,1.652v0h0l.017,0c.065,0,5.745.144,7.458-6.485l0-.02a.821.821,0,0,0-.593-1m-8.432,5.059a2.25,2.25,0,0,1,1.6-.637v0h0l.017,0c.036,0,3.331.087,4.427-4.182h0a2.26,2.26,0,0,1,4.38,1.115h0c-1.945,7.579-8.5,7.588-8.866,7.582v0h0l-.008,0h-.008a2.259,2.259,0,0,1-1.532-3.879Zm8.432-5.059a.82.82,0,0,0-1,.593h0c-1.337,5.211-5.529,5.264-5.831,5.261v0h0l-.008,0h-.008" transform="translate(-298.803 -197.233)" fill="#e1a497"/>
        <path id="Path_2579" data-name="Path 2579" d="M291.126,131.23a4.821,4.821,0,1,1-3.409,1.412A4.807,4.807,0,0,1,291.126,131.23Zm2.393,2.428a3.384,3.384,0,1,0,.991,2.393A3.374,3.374,0,0,0,293.519,133.658Z" transform="translate(-285.36 -131.23)" fill="#e1a497"/>
      </g>
    </g>
  </g>
</svg>
