<svg xmlns="http://www.w3.org/2000/svg" width="114" height="114" viewBox="0 0 114 114">
  <g id="Group_2481" data-name="Group 2481" transform="translate(-323 -5625)">
    <rect id="Rectangle_92" data-name="Rectangle 92" width="114" height="114" transform="translate(323 5625)" fill="#fff" opacity="0"/>
    <path id="Union_2" data-name="Union 2" d="M.653,54.244a.654.654,0,0,1,0-1.307H6.264l5.5-5.5V42.48H6.535a.655.655,0,0,1,0-1.31H8.783l-.946-5.109a.65.65,0,0,1,.14-.536.658.658,0,0,1,.5-.236H10.6l-.742-8.419a3.218,3.218,0,0,1-.611.059,3.184,3.184,0,0,1-2.751-1.587A10.241,10.241,0,0,1,5.46,18.129a.651.651,0,0,1,.3-.4.658.658,0,0,1,.5-.066,10.254,10.254,0,0,1,5.731,4.5,3.172,3.172,0,0,1-.872,4.147l.791,8.976H12.9l.781-7.081a2.48,2.48,0,0,1-.33-2.92A7.6,7.6,0,0,1,17.6,21.953a.655.655,0,0,1,.8.463,7.588,7.588,0,0,1-.764,5.348A2.484,2.484,0,0,1,15.5,29a2.448,2.448,0,0,1-.576-.072l-.7,6.362h2.1a.655.655,0,0,1,.643.772l-.946,5.109H18.3a.653.653,0,0,1,0,1.307H13.071v4.957l5.5,5.5h6.918V50.322H24.18a.654.654,0,0,1-.653-.653V37.9a.653.653,0,0,1,.653-.653h3.267V33.983a2.618,2.618,0,0,1,2.614-2.614H41.825a2.607,2.607,0,0,1,1.961.89,2.608,2.608,0,0,1,1.961-.89H57.511a2.618,2.618,0,0,1,2.614,2.614v3.268h3.268a.654.654,0,0,1,.653.653V49.668a.653.653,0,0,1-.653.653H62.086v2.614h6.535V16.991H63.393a.657.657,0,0,1-.636-.812l1.961-7.842a.653.653,0,0,1,.635-.495H73.2a.655.655,0,0,1,.635.495l1.942,7.769a.655.655,0,0,1-.611.885H69.928V52.936h9.15a.654.654,0,0,1,0,1.308ZM26.8,52.935H60.779V50.321H26.8Zm-13.724,0h3.65l-3.65-3.65Zm-4.957,0h3.65v-3.65Zm16.721-3.921H62.74V38.558H60.125v7.189a.654.654,0,0,1-.653.653H28.1a.653.653,0,0,1-.653-.653V38.558H24.835Zm19.606-3.921H58.818V42.479H44.441Zm-15.684,0H43.134V42.479H28.757ZM44.442,33.983v7.189H58.819V33.983a1.308,1.308,0,0,0-1.307-1.307H45.748A1.308,1.308,0,0,0,44.442,33.983Zm-15.685,0v7.189H43.134V33.983a1.308,1.308,0,0,0-1.307-1.307H30.063A1.308,1.308,0,0,0,28.756,33.983ZM10.115,41.171h4.576l.847-4.574H9.267Zm4.371-15.23a1.167,1.167,0,1,0,2.022,1.168,6.222,6.222,0,0,0,.744-3.624A6.214,6.214,0,0,0,14.487,25.942ZM7.626,24.688a1.866,1.866,0,0,0,2.55.686,1.869,1.869,0,0,0,.684-2.552A8.954,8.954,0,0,0,6.6,19.176,8.958,8.958,0,0,0,7.626,24.688Zm56.6-9H74.319L72.685,9.149H65.864ZM32.023,22.875a.653.653,0,0,1-.653-.654V4.575a.654.654,0,0,1,.653-.653H55.55a.654.654,0,0,1,.653.653V22.221a.654.654,0,0,1-.653.653Zm.653-6.264v4.957H44.169l-8.225-8.225Zm3.729-4.654,9.612,9.611H54.9V5.229H32.676v9.533l2.805-2.805a.654.654,0,0,1,.925,0Zm6.728.461a4.574,4.574,0,1,1,4.574,4.575A4.579,4.579,0,0,1,43.134,12.417Zm1.307,0a3.268,3.268,0,1,0,3.268-3.268A3.271,3.271,0,0,0,44.44,12.417Zm-28.1,2.614a.653.653,0,0,1-.653-.653V.653A.654.654,0,0,1,16.338,0H28.1a.654.654,0,0,1,.653.653V14.378a.654.654,0,0,1-.653.653Zm.653-1.307H27.448V1.307H23.956a6.522,6.522,0,0,1-6.964,9.666Zm0-4.086a5.233,5.233,0,0,0,6.535-5.064,5.216,5.216,0,0,0-1.148-3.268H16.992Z" transform="translate(340 5655)" fill="#e1a497"/>
  </g>
</svg>
