<svg xmlns="http://www.w3.org/2000/svg" width="114" height="114" viewBox="0 0 114 114">
  <g id="Group_2483" data-name="Group 2483" transform="translate(-736 -5625)">
    <rect id="Rectangle_92" data-name="Rectangle 92" width="114" height="114" transform="translate(736 5625)" fill="#fff" opacity="0"/>
    <g id="Group_2482" data-name="Group 2482" transform="translate(645.236 5558.563)">
      <path id="Path_2701" data-name="Path 2701" d="M162.714,405.435a14.8,14.8,0,0,0-2.151,7.489.717.717,0,0,0,1.434,0,12.992,12.992,0,0,1,2.39-7.489Z" transform="translate(-38.425 -264.182)" fill="#e1a497"/>
      <path id="Path_2702" data-name="Path 2702" d="M495.446,405.435a12.854,12.854,0,0,1,2.39,7.489.717.717,0,0,0,1.434,0,14.8,14.8,0,0,0-2.151-7.489Z" transform="translate(-325.669 -264.182)" fill="#e1a497"/>
      <path id="Path_2703" data-name="Path 2703" d="M179.258,97.993H138.549a.717.717,0,1,0,0,1.434h39.434a19.414,19.414,0,0,1-14.419,7.728.651.651,0,0,0-.637.717v23.581a.765.765,0,0,0,.558.717c.079,0,11.233,2.39,13.623,7.568H169.7a12.615,12.615,0,0,0-6.931-3.346c-9-1.434-9.241-6.134-9.161-7.011a16.434,16.434,0,0,0,3.9-6.373h.4a2.312,2.312,0,0,0,2.31-2.31v-.956h.4a.714.714,0,0,0,.717-.717v-3.107a.714.714,0,0,0-.717-.717h-.478v-1.673a2.255,2.255,0,0,0-2.071-2.231,10.277,10.277,0,0,0-20.395,0,2.2,2.2,0,0,0-2.071,2.231V115.2h-.478a.714.714,0,0,0-.717.717v3.107a.714.714,0,0,0,.717.717h.4v.956a2.312,2.312,0,0,0,2.31,2.31h.4a14.292,14.292,0,0,0,3.9,6.373c0,.8-.159,5.576-9.161,7.011a11.857,11.857,0,0,0-6.931,3.346h-7.25c2.469-5.178,13.543-7.568,13.623-7.568a.7.7,0,0,0,.558-.717V107.87a.766.766,0,0,0-.637-.717,20.062,20.062,0,0,1-14.419-7.728h23.456a.717.717,0,0,0,0-1.434h-24.89a.714.714,0,0,0-.717.717v41.745a.714.714,0,0,0,.717.717h62.856a.714.714,0,0,0,.717-.717V98.709a.846.846,0,0,0-.8-.717Zm-62.139,41.665V100.7a20.962,20.962,0,0,0,14.34,7.728v22.386C128.989,131.452,119.19,134.081,117.119,139.658Zm30.751-35.929a8.906,8.906,0,0,1,8.763,7.568H139.107a8.9,8.9,0,0,1,8.764-7.568Zm-10.038,17.845a.884.884,0,0,1-.876-.876v-.637l3.744-2.31c.159-.08.159-.239.08-.4s-.239-.16-.4-.08l-3.505,2.151v-1.115L140.7,116c.159-.079.159-.239.08-.4s-.239-.16-.4-.08l-3.505,2.151v-4.143a.884.884,0,0,1,.876-.876h20.155a.884.884,0,0,1,.876.876v7.17a.884.884,0,0,1-.876.876h-6.373l-1.434-2.55a2.589,2.589,0,0,0-4.461,0l-1.434,2.55Zm1.832,1.434h5.019a.71.71,0,0,0,.637-.4v-.079l1.593-2.708a1.034,1.034,0,0,1,.956-.638,1.1,1.1,0,0,1,.956.558l1.514,2.708a.248.248,0,0,0,.079.159.71.71,0,0,0,.637.4H156c-1.354,3.824-4.461,7.568-8.206,7.568-3.585,0-6.771-3.744-8.125-7.568Zm-11.551,16.65a12.035,12.035,0,0,1,5.019-1.912c8.126-1.275,9.879-5.178,10.277-7.329a7.33,7.33,0,0,0,8.922,0c.4,2.071,2.151,5.975,10.277,7.329a12.031,12.031,0,0,1,5.019,1.912Zm50.508-.319c-2.31-5.338-11.711-7.887-14.18-8.444V108.509a21.088,21.088,0,0,0,14.18-7.489Z" transform="translate(0 -0.476)" fill="#e1a497"/>
      <path id="Path_2704" data-name="Path 2704" d="M198.8,98.871h7.648a.717.717,0,1,0,0-1.434H198.8a.717.717,0,1,0,0,1.434Z" transform="translate(-70.612 0)" fill="#e1a497"/>
    </g>
  </g>
</svg>
